<svg xmlns="http://www.w3.org/2000/svg" version="1.1" viewBox="0 0 540 236" width="540.0pt" height="236.0pt">



<path d="M 19.11 6.16 C 174.69 5.79 335.80 6.10 492.00 6.00 C 498.52 6.31 504.08 4.84 510.09 7.79 C 515.04 9.12 516.92 13.01 521.10 15.89 C 524.14 18.48 527.89 19.40 528.12 24.00 C 520.56 18.94 512.98 8.50 503.02 8.03 C 343.56 7.97 181.66 8.01 21.97 8.01 C 15.04 8.82 7.88 14.45 7.98 21.97 C 8.08 81.65 7.88 142.46 8.08 201.99 C 11.00 213.98 25.24 225.68 37.15 227.76 C 54.01 228.34 71.09 227.83 88.00 228.00 C 228.99 228.02 370.01 227.97 511.00 228.02 C 517.94 228.62 524.38 227.45 527.87 220.89 C 529.94 211.63 521.55 203.55 517.55 195.42 C 509.11 182.29 501.39 168.98 493.25 155.71 C 488.18 146.10 480.33 136.82 476.34 126.67 C 474.08 118.19 483.62 108.57 487.23 101.22 C 496.52 86.40 505.02 71.12 514.38 56.35 C 519.88 46.53 529.64 35.68 528.12 24.00 C 530.83 24.09 529.75 27.14 530.10 28.99 C 530.86 34.89 526.43 39.71 523.51 44.46 C 509.04 69.98 492.20 94.48 478.41 120.36 C 476.84 125.11 479.23 130.10 481.99 133.91 C 494.59 154.39 506.90 174.96 519.61 195.39 C 522.48 199.79 523.93 204.42 528.04 207.94 C 530.15 213.14 531.52 220.07 527.97 224.95 C 521.45 231.08 514.24 229.98 506.00 230.00 C 354.33 230.00 202.67 230.00 51.00 230.00 C 44.48 229.86 38.67 230.72 32.36 228.63 C 25.58 226.78 20.79 221.86 15.73 217.27 C 11.34 213.24 7.55 208.66 6.36 202.65 C 5.51 187.57 6.25 172.15 6.00 157.00 C 5.98 112.02 6.03 66.95 5.97 21.98 C 6.26 13.28 11.89 9.41 19.11 6.16 Z" fill="#dcddde" data-index="1" style="opacity: 1; visibility: hidden;"></path>



<path d="M 25.97 11.00 C 175.98 11.00 325.99 11.00 476.00 11.00 C 487.66 11.22 498.86 10.01 510.22 12.81 C 515.13 16.40 520.44 20.95 524.57 25.42 C 526.41 31.73 523.57 37.04 520.28 42.23 C 519.50 42.46 518.71 42.70 517.93 42.93 L 518.07 41.05 C 520.78 36.15 524.89 29.20 519.44 24.58 C 513.74 19.94 510.45 14.66 503.20 12.75 C 487.29 11.01 470.15 12.49 454.00 12.00 C 310.13 11.84 165.57 12.33 21.80 11.75 C 23.17 11.30 24.52 11.03 25.97 11.00 Z" fill="#aaabae" data-index="3" style="opacity: 1; visibility: hidden;"></path>



<path d="M 60.00 15.00 C 190.00 15.00 320.00 15.00 450.00 15.00 C 468.31 15.42 486.87 14.09 505.10 15.82 C 506.34 17.28 507.62 18.70 508.85 20.17 C 504.82 18.49 500.44 15.83 496.02 15.98 C 338.56 16.02 180.97 15.99 23.50 16.00 C 34.92 13.70 48.19 15.64 60.00 15.00 Z" fill="#77787a" data-index="5" style="visibility: hidden; opacity: 1;"></path>



<path d="M 42.00 19.98 C 191.87 20.03 342.12 19.99 492.02 20.00 C 497.38 19.97 501.24 22.48 506.17 23.89 C 508.28 26.28 513.62 28.84 511.14 32.54 C 506.60 27.91 501.12 21.99 494.02 21.97 C 340.05 22.04 183.25 21.98 28.97 22.00 C 26.80 21.97 25.52 22.51 23.87 23.87 C 22.51 25.52 21.97 26.80 22.00 28.97 C 22.00 84.99 22.00 141.02 22.00 197.03 C 21.96 199.10 22.42 199.79 23.85 201.17 C 24.41 201.76 24.98 202.34 25.56 202.91 C 27.94 205.57 30.74 207.72 33.63 209.79 C 35.55 211.43 37.27 212.02 39.75 212.38 C 57.92 213.82 76.70 212.60 95.00 213.00 C 225.00 213.00 355.00 213.00 485.00 213.00 C 491.37 212.64 498.30 213.88 504.46 212.16 C 506.65 211.54 507.44 212.33 506.29 209.69 C 489.11 181.42 470.51 151.61 453.75 123.40 C 470.25 96.73 486.93 68.72 503.63 41.63 C 505.28 39.15 506.96 37.06 506.92 33.90 C 508.35 33.66 509.79 33.45 511.22 33.22 C 511.53 36.90 509.05 41.92 506.90 44.87 C 499.51 54.37 495.91 65.97 487.87 74.49 C 487.53 76.00 487.68 77.67 487.59 79.22 L 487.19 79.58 C 478.96 86.57 474.82 99.60 468.21 108.14 C 464.90 112.92 462.50 119.04 462.18 124.85 C 463.59 130.75 466.73 136.97 469.89 142.14 C 482.07 160.65 497.99 188.67 511.29 208.89 C 511.43 212.54 513.32 215.65 507.99 215.94 C 360.73 216.08 210.59 215.96 63.00 216.00 C 51.62 215.51 42.12 218.06 31.99 212.01 C 28.51 210.54 27.56 207.36 24.61 205.41 C 20.70 203.44 20.33 197.88 20.00 194.02 C 19.99 141.70 20.01 89.32 19.99 37.00 C 20.07 31.60 19.26 26.92 22.02 21.98 C 28.36 20.02 35.42 20.06 42.00 19.98 Z" fill="#3e3e3e" data-index="7" style="visibility: hidden; opacity: 1;"></path>



<path d="M 23.87 23.87 C 180.51 24.26 338.26 23.73 494.88 24.14 C 493.38 27.26 491.20 29.99 489.57 33.07 C 474.66 58.36 458.84 84.35 443.60 109.64 C 443.05 111.15 441.52 112.70 442.81 114.20 C 460.00 142.84 477.25 171.53 494.39 200.20 C 482.31 202.04 469.29 200.49 457.00 201.00 C 312.73 201.11 168.07 200.78 23.85 201.17 C 24.12 142.09 24.07 82.95 23.87 23.87 Z" fill="#fdf101" data-index="9" style="opacity: 1;"></path>
<path d="M 489.57 33.07 C 494.87 34.95 501.33 33.70 506.92 33.90 C 506.96 37.06 505.28 39.15 503.63 41.63 C 486.93 68.72 470.25 96.73 453.75 123.40 C 470.51 151.61 489.11 181.42 506.29 209.69 C 507.44 212.33 506.65 211.54 504.46 212.16 C 494.23 209.52 481.74 211.72 471.00 211.00 C 341.00 211.00 211.00 211.00 81.00 211.00 C 65.21 210.60 48.82 212.04 33.63 209.79 C 30.74 207.72 27.94 205.57 25.56 202.91 C 42.31 200.93 60.05 202.50 77.00 202.00 C 215.35 202.00 353.69 202.00 492.04 202.00 C 493.29 202.50 498.21 200.17 494.39 200.20 C 477.25 171.53 460.00 142.84 442.81 114.20 C 441.52 112.70 443.05 111.15 443.60 109.64 C 458.84 84.35 474.66 58.36 489.57 33.07 Z" fill="#6d6e6f" data-index="10" style="opacity: 1; visibility: visible;"></path>
<path d="M 68.00 73.98 C 79.52 74.51 91.93 73.01 103.20 74.73 C 88.42 75.22 73.43 75.07 58.63 74.82 C 61.34 73.47 65.03 74.10 68.00 73.98 Z" fill="#d0c304" data-index="11"></path>
<path d="M 160.11 75.97 C 161.06 78.27 161.73 78.94 164.04 79.88 C 166.83 88.96 170.22 97.81 172.96 106.90 C 173.44 110.22 174.53 113.32 175.85 116.38 C 176.65 117.98 176.14 121.30 178.74 120.31 C 181.13 121.94 180.45 122.50 181.35 119.37 C 183.98 114.37 188.58 115.70 193.12 116.94 C 192.13 122.17 189.53 126.57 186.39 130.79 C 186.20 130.05 186.01 129.31 185.82 128.57 C 181.72 130.92 176.09 131.14 173.05 126.99 C 170.65 132.75 167.84 126.02 167.61 133.17 C 166.17 128.90 165.05 124.53 163.69 120.24 C 163.86 117.51 163.99 114.79 164.20 112.07 C 165.28 112.98 167.07 118.27 167.03 114.00 C 167.21 107.53 169.80 122.47 169.96 116.00 C 169.84 111.77 171.85 117.12 172.99 117.93 C 170.86 109.09 168.16 100.32 165.19 91.73 C 162.85 86.07 161.91 77.67 154.65 76.31 C 151.91 74.74 147.53 80.08 146.58 75.97 C 150.60 72.72 155.89 73.61 160.11 75.97 Z" fill="#484744" data-index="12" style="opacity: 1; visibility: visible; fill: rgb(50, 48, 49); stroke: rgb(50, 48, 49);"></path>
<path d="M 214.25 82.79 L 213.76 84.72 C 212.64 95.67 211.85 107.06 211.92 118.14 C 209.94 116.57 208.88 112.88 208.94 118.02 C 209.08 123.78 206.59 112.99 205.79 117.80 C 203.95 122.67 203.52 116.66 202.26 115.01 C 202.04 120.71 200.67 126.17 200.97 131.89 C 200.86 136.94 201.55 142.39 200.30 147.23 C 199.50 134.24 200.44 121.15 199.82 108.17 C 197.11 107.49 198.42 110.25 197.95 111.91 L 197.12 112.04 C 196.97 104.27 193.40 114.98 193.12 116.94 C 188.58 115.70 183.98 114.37 181.35 119.37 C 183.11 112.30 186.15 105.86 188.27 99.02 C 188.99 100.77 189.79 102.47 190.83 104.05 C 190.87 101.98 190.73 99.91 190.56 97.84 C 193.17 103.50 203.19 100.07 208.53 101.21 C 213.28 97.40 212.75 87.43 210.59 82.39 C 206.07 75.43 201.13 75.61 193.89 78.01 C 194.25 77.28 194.60 76.56 194.95 75.83 C 202.58 71.60 211.27 74.52 214.25 82.79 Z" fill="#575757" data-index="13" style="opacity: 1; visibility: visible; fill: rgb(50, 48, 49); stroke: rgb(50, 48, 49);"></path>
<path d="M 267.78 74.18 C 270.55 75.05 273.30 75.61 276.21 75.77 C 297.08 83.46 308.77 107.12 300.35 128.14 C 299.96 126.53 300.06 123.63 297.93 125.85 C 296.50 130.81 290.50 127.49 286.83 128.51 C 285.05 130.04 283.86 131.94 281.71 133.10 C 281.39 131.46 282.00 130.38 280.09 129.67 C 281.31 128.03 282.52 126.38 283.77 124.77 C 284.42 125.43 285.10 126.07 285.79 126.69 C 288.06 123.47 288.57 119.87 289.29 116.10 C 289.84 113.77 289.98 111.41 290.28 109.04 C 292.02 110.41 289.56 115.09 293.00 113.00 C 295.96 111.37 294.57 113.97 295.27 115.89 C 296.29 114.20 295.56 113.21 297.77 114.28 C 303.42 106.95 297.51 100.70 294.40 93.94 C 288.41 82.99 276.92 77.68 264.95 76.13 C 256.78 76.24 249.66 78.59 242.35 82.01 C 242.44 81.26 242.53 80.52 242.64 79.77 C 250.17 75.04 258.96 73.26 267.78 74.18 Z" fill="#4e4c44" data-index="14" style="visibility: visible; fill: rgb(50, 48, 49); stroke: rgb(50, 48, 49); opacity: 1;"></path>
<path d="M 267.78 74.18 C 271.14 73.92 273.34 73.84 276.21 75.77 C 273.30 75.61 270.55 75.05 267.78 74.18 Z" fill="#b5ab1d" data-index="15"></path>
<path d="M 58.63 74.82 C 59.03 75.49 59.44 76.15 59.85 76.82 C 62.12 81.13 60.52 87.22 60.74 92.02 L 58.95 92.08 C 57.33 87.73 57.66 79.38 58.63 74.82 Z" fill="#acaa8d" data-index="16"></path>
<path d="M 58.63 74.82 C 73.43 75.07 88.42 75.22 103.20 74.73 L 103.99 75.04 L 103.98 75.98 C 89.49 76.56 74.10 74.91 59.85 76.82 C 59.44 76.15 59.03 75.49 58.63 74.82 Z" fill="#676750" data-index="17"></path>
<path d="M 103.99 75.04 C 107.74 76.54 105.47 85.55 105.93 89.00 C 106.16 96.56 94.47 91.79 91.25 94.28 C 90.07 112.40 92.33 134.68 90.14 152.14 C 89.77 132.01 90.20 111.86 89.91 91.73 C 92.96 91.57 102.54 93.21 103.86 90.95 C 104.21 85.98 103.94 80.96 103.98 75.98 L 103.99 75.04 Z" fill="#e5d403" data-index="18" style="opacity: 1;"></path>
<path d="M 110.20 75.26 L 111.06 75.16 C 110.82 100.83 111.26 126.53 110.83 152.19 C 109.17 148.71 110.28 143.82 110.00 140.00 C 110.14 118.47 109.72 96.75 110.20 75.26 Z" fill="#d8c803" data-index="19" style="opacity: 1;"></path>
<path d="M 111.06 75.16 L 111.99 75.09 L 112.04 77.01 C 111.88 102.03 112.15 127.07 111.91 152.08 L 110.83 152.19 C 111.26 126.53 110.82 100.83 111.06 75.16 Z" fill="#b1a950" data-index="20"></path>
<path d="M 111.99 75.09 C 117.25 74.91 122.73 74.91 127.99 75.05 C 128.09 100.74 127.85 126.43 128.11 152.12 L 127.07 152.06 C 126.92 129.36 127.02 106.66 127.03 83.97 C 126.96 82.50 127.07 81.21 126.06 80.02 C 123.57 75.25 118.44 77.44 114.00 77.04 L 112.04 77.01 L 111.99 75.09 Z" fill="#575648" data-index="21" style="opacity: 1;"></path>
<path d="M 127.99 75.05 C 130.08 76.55 129.94 78.66 130.03 80.98 C 129.96 103.28 130.02 125.73 130.00 148.03 C 129.95 150.15 129.96 150.91 128.11 152.12 C 127.85 126.43 128.09 100.74 127.99 75.05 Z" fill="#e4d200" data-index="22" style="opacity: 1;"></path>
<path d="M 312.05 75.12 C 311.94 98.03 312.02 120.95 312.01 143.86 C 310.01 142.73 310.07 142.28 310.00 140.03 C 309.98 120.41 310.04 100.63 309.97 80.98 C 310.00 79.22 310.05 75.86 312.05 75.12 Z" fill="#decd00" data-index="23" style="opacity: 1;"></path>
<path d="M 312.05 75.12 L 312.99 75.05 L 313.11 76.92 C 312.65 99.37 313.48 121.92 312.69 144.34 L 312.01 143.86 C 312.02 120.95 311.94 98.03 312.05 75.12 Z" fill="#a7a477" data-index="24" style="opacity: 1;"></path>
<path d="M 312.99 75.05 C 317.99 74.93 323.06 74.89 328.06 75.10 C 327.95 76.32 327.83 77.55 327.70 78.77 C 325.86 93.04 328.16 107.62 326.01 122.00 C 325.48 124.58 326.67 134.33 322.46 128.40 C 321.23 130.39 320.25 131.80 318.04 132.75 C 316.01 131.00 318.03 124.72 316.15 124.24 C 315.99 127.27 316.05 130.25 315.29 133.23 C 314.85 127.54 314.92 121.87 315.15 116.18 C 316.51 111.10 316.98 110.90 320.56 114.64 C 322.49 109.26 322.48 113.97 324.64 115.98 C 326.70 109.24 325.89 102.80 325.93 95.89 C 325.89 90.05 326.36 84.09 325.75 78.29 C 323.48 76.07 317.32 77.80 314.13 76.99 L 313.11 76.92 L 312.99 75.05 Z" fill="#494949" data-index="25" style="opacity: 1; visibility: visible; fill: rgb(50, 48, 49); stroke: rgb(50, 48, 49);"></path>
<path d="M 328.06 75.10 L 328.97 75.17 C 329.08 95.40 328.91 115.63 329.05 135.86 L 328.20 135.75 C 327.53 116.80 328.53 97.72 327.70 78.77 C 327.83 77.55 327.95 76.32 328.06 75.10 Z" fill="#878147" data-index="26"></path>
<path d="M 328.97 75.17 C 329.74 74.98 330.07 75.59 329.96 77.02 C 330.22 95.90 329.68 114.93 330.20 133.80 C 337.00 134.93 345.50 132.44 351.73 135.28 C 352.21 140.39 352.22 147.59 351.72 152.70 C 345.78 155.06 338.34 153.62 332.00 154.01 C 327.92 153.72 323.23 155.15 320.04 152.03 L 322.23 151.91 C 331.45 151.99 340.73 152.18 349.94 151.86 C 351.67 150.52 351.67 137.48 349.94 136.14 C 343.01 135.65 335.99 136.35 329.05 135.86 C 328.91 115.63 329.08 95.40 328.97 75.17 Z" fill="#d8c909" data-index="27" style="opacity: 1;"></path>
<path d="M 103.98 75.98 C 103.94 80.96 104.21 85.98 103.86 90.95 L 101.99 90.94 C 101.48 87.19 103.33 79.96 100.71 77.25 C 87.18 76.53 73.41 77.42 59.85 76.82 C 74.10 74.91 89.49 76.56 103.98 75.98 Z" fill="#3e3d3e" data-index="28"></path>
<path d="M 146.58 75.97 C 147.53 80.08 151.91 74.74 154.65 76.31 C 161.91 77.67 162.85 86.07 165.19 91.73 C 163.94 94.82 162.93 98.13 161.34 101.04 C 160.64 98.77 161.75 93.51 159.45 98.52 C 154.78 99.75 149.10 98.45 144.20 99.20 C 143.73 104.42 144.07 109.73 144.04 114.97 C 143.97 120.62 143.97 126.29 144.04 131.94 C 143.63 138.25 144.80 145.02 143.28 151.15 C 142.93 132.97 142.59 114.51 143.44 96.37 C 144.46 90.58 144.29 84.73 142.91 79.01 C 144.04 77.87 145.25 76.87 146.58 75.97 Z" fill="#6c6e70" data-index="29" style="opacity: 1; visibility: visible; fill: rgb(50, 48, 49); stroke: rgb(50, 48, 49);"></path>
<path d="M 160.11 75.97 C 162.96 76.41 163.59 77.03 164.04 79.88 C 161.73 78.94 161.06 78.27 160.11 75.97 Z" fill="#b0a339" data-index="30"></path>
<path d="M 194.95 75.83 C 194.60 76.56 194.25 77.28 193.89 78.01 L 192.75 79.02 C 187.22 87.85 186.01 100.74 181.01 110.00 C 181.69 101.25 186.47 92.97 188.50 84.40 C 189.81 80.56 190.66 77.20 194.95 75.83 Z" fill="#ccbe13" data-index="31" style="opacity: 1;"></path>
<path d="M 210.59 82.39 C 212.75 87.43 213.28 97.40 208.53 101.21 C 203.19 100.07 193.17 103.50 190.56 97.84 C 190.73 99.91 190.87 101.98 190.83 104.05 C 189.79 102.47 188.99 100.77 188.27 99.02 C 190.61 92.33 191.51 86.05 195.46 80.24 C 194.57 79.82 193.66 79.41 192.75 79.02 L 193.89 78.01 C 201.13 75.61 206.07 75.43 210.59 82.39 Z" fill="#6b6c6e" data-index="32" style="opacity: 1; visibility: visible; fill: rgb(50, 48, 49); stroke: rgb(50, 48, 49);"></path>
<path d="M 264.95 76.13 C 276.92 77.68 288.41 82.99 294.40 93.94 C 293.86 96.84 289.57 94.49 287.22 96.53 C 286.56 89.47 285.82 96.41 284.92 98.99 C 281.75 94.46 277.05 90.95 271.86 89.11 C 269.94 88.85 268.53 88.67 267.72 90.77 C 263.09 90.48 258.79 90.87 254.32 92.14 C 254.44 91.41 254.54 90.68 254.63 89.96 C 250.10 91.51 245.86 94.18 242.82 97.93 C 238.91 99.24 234.87 99.89 231.17 97.62 C 230.23 99.69 229.56 101.72 227.89 103.37 C 227.42 102.19 226.97 101.00 226.53 99.80 C 227.37 97.54 228.24 95.29 229.05 93.01 C 232.74 87.45 236.75 83.06 242.64 79.77 C 242.53 80.52 242.44 81.26 242.35 82.01 C 249.66 78.59 256.78 76.24 264.95 76.13 Z" fill="#6e6f6f" data-index="33" style="opacity: 1; visibility: visible; fill: rgb(50, 48, 49); stroke: rgb(50, 48, 49);"></path>
<path d="M 59.85 76.82 C 73.41 77.42 87.18 76.53 100.71 77.25 C 103.33 79.96 101.48 87.19 101.99 90.94 C 97.94 91.08 93.72 90.55 89.91 91.73 L 89.16 91.91 C 88.80 91.27 88.42 90.64 88.03 90.03 C 84.96 86.69 86.97 101.04 85.16 100.74 C 84.95 98.14 84.98 95.54 84.69 92.94 C 82.97 95.23 83.87 97.30 83.85 99.93 C 82.96 98.67 82.13 97.37 81.23 96.11 C 81.07 97.73 80.96 99.36 80.75 100.98 C 79.31 99.19 79.90 95.35 79.55 93.03 C 74.65 99.67 76.19 112.26 76.26 120.23 C 75.84 124.57 75.95 128.91 76.19 133.27 C 75.91 137.39 76.37 141.19 75.26 145.23 C 74.51 126.58 75.47 107.79 74.78 89.15 C 71.10 88.77 72.56 89.33 72.67 92.10 C 68.69 91.96 64.72 91.99 60.74 92.02 C 60.52 87.22 62.12 81.13 59.85 76.82 Z" fill="#6f7071" data-index="34" style="opacity: 1; visibility: visible; fill: rgb(50, 48, 49); stroke: rgb(50, 48, 49);"></path>
<path d="M 112.04 77.01 L 114.00 77.04 C 114.04 84.98 113.91 92.93 114.08 100.87 C 114.00 105.86 113.88 110.82 114.17 115.80 C 113.93 121.85 113.95 127.89 114.04 133.94 C 113.99 139.94 114.00 145.95 114.00 151.96 L 111.91 152.08 C 112.15 127.07 111.88 102.03 112.04 77.01 Z" fill="#9d9ea1" data-index="35" style="opacity: 1;"></path>
<path d="M 114.00 77.04 C 118.44 77.44 123.57 75.25 126.06 80.02 C 126.07 82.61 125.97 85.19 125.73 87.77 C 124.58 91.80 125.72 95.58 123.42 99.29 C 122.49 100.46 123.72 106.19 122.12 105.72 C 121.92 102.87 122.07 99.99 121.89 97.14 C 119.77 97.57 122.53 103.47 119.24 100.87 C 116.90 98.78 118.99 104.92 117.12 104.84 C 116.62 103.40 117.78 97.06 116.17 97.27 C 115.45 100.01 117.03 107.59 114.08 100.87 C 113.91 92.93 114.04 84.98 114.00 77.04 Z" fill="#6a6c6f" data-index="36" style="opacity: 1; visibility: visible; fill: rgb(50, 48, 49); stroke: rgb(50, 48, 49);"></path>
<path d="M 313.11 76.92 L 314.13 76.99 C 316.08 84.30 314.54 92.71 314.73 100.23 C 314.81 102.08 314.85 103.92 314.77 105.77 C 313.16 112.23 314.35 119.36 314.00 126.00 C 314.32 131.25 313.20 137.17 314.72 142.22 C 316.25 146.56 320.50 147.73 322.23 151.91 L 320.04 152.03 C 316.66 149.89 314.09 148.34 312.69 144.34 C 313.48 121.92 312.65 99.37 313.11 76.92 Z" fill="#9e9f9c" data-index="37" style="opacity: 1;"></path>
<path d="M 314.13 76.99 C 317.32 77.80 323.48 76.07 325.75 78.29 C 326.36 84.09 325.89 90.05 325.93 95.89 C 325.19 99.38 321.40 99.54 320.27 96.28 C 319.69 97.89 320.11 100.03 318.87 97.23 C 318.07 94.27 317.53 100.87 317.10 97.96 C 316.64 93.73 315.58 99.22 314.73 100.23 C 314.54 92.71 316.08 84.30 314.13 76.99 Z" fill="#6c6d70" data-index="38" style="opacity: 1; visibility: visible; fill: rgb(50, 48, 49); stroke: rgb(50, 48, 49);"></path>
<path d="M 142.91 79.01 C 144.29 84.73 144.46 90.58 143.44 96.37 C 142.59 114.51 142.93 132.97 143.28 151.15 L 143.09 151.97 C 141.47 152.25 140.79 151.58 141.05 149.98 C 140.90 130.02 141.08 109.98 140.97 90.00 C 140.90 86.63 141.28 83.35 141.93 80.04 L 142.91 79.01 Z" fill="#a2a191" data-index="39" style="opacity: 1;"></path>
<path d="M 192.75 79.02 C 193.66 79.41 194.57 79.82 195.46 80.24 C 191.51 86.05 190.61 92.33 188.27 99.02 C 186.15 105.86 183.11 112.30 181.35 119.37 C 180.45 122.50 181.13 121.94 178.74 120.31 C 179.60 116.86 180.74 113.56 181.01 110.00 C 186.01 100.74 187.22 87.85 192.75 79.02 Z" fill="#888880" data-index="40" style="opacity: 1;"></path>
<path d="M 327.70 78.77 C 328.53 97.72 327.53 116.80 328.20 135.75 L 329.05 135.86 C 335.99 136.35 343.01 135.65 349.94 136.14 C 350.03 141.38 350.04 146.62 349.94 151.86 C 340.73 152.18 331.45 151.99 322.23 151.91 C 320.50 147.73 316.25 146.56 314.72 142.22 C 314.88 139.22 315.02 136.22 315.29 133.23 C 316.05 130.25 315.99 127.27 316.15 124.24 C 318.03 124.72 316.01 131.00 318.04 132.75 C 320.25 131.80 321.23 130.39 322.46 128.40 C 326.67 134.33 325.48 124.58 326.01 122.00 C 328.16 107.62 325.86 93.04 327.70 78.77 Z" fill="#2f2d2e" data-index="41" style="opacity: 1; visibility: visible; fill: rgb(50, 48, 49); stroke: rgb(50, 48, 49);"></path>
<path d="M 126.06 80.02 C 127.07 81.21 126.96 82.50 127.03 83.97 C 127.02 106.66 126.92 129.36 127.07 152.06 C 122.72 151.97 118.36 152.00 114.00 151.96 C 114.00 145.95 113.99 139.94 114.04 133.94 C 117.97 140.38 114.42 126.12 117.15 131.79 C 118.71 135.55 117.14 127.11 118.79 128.38 C 119.02 129.92 119.13 131.47 119.33 133.02 C 122.03 131.71 120.01 126.74 121.91 126.23 C 122.10 129.38 121.89 132.58 122.12 135.72 C 124.60 134.47 120.74 128.51 125.74 127.67 C 126.33 121.11 126.02 114.35 125.74 107.77 C 126.20 101.14 126.11 94.41 125.73 87.77 C 125.97 85.19 126.07 82.61 126.06 80.02 Z" fill="#302e2f" data-index="42" style="opacity: 1; visibility: visible; fill: rgb(50, 48, 49); stroke: rgb(50, 48, 49);"></path>
<path d="M 141.93 80.04 C 141.28 83.35 140.90 86.63 140.97 90.00 C 141.08 109.98 140.90 130.02 141.05 149.98 C 140.79 151.58 141.47 152.25 143.09 151.97 C 147.75 152.13 152.42 151.90 157.08 152.05 L 158.14 152.14 C 156.67 155.07 151.74 153.71 149.00 154.07 C 145.22 153.84 139.97 154.98 139.16 149.90 C 138.75 130.37 139.17 110.57 138.96 91.00 C 138.91 87.03 139.19 83.16 141.93 80.04 Z" fill="#d9ca03" data-index="43" style="opacity: 1;"></path>
<path d="M 214.25 82.79 L 215.04 84.03 C 215.08 106.38 214.76 128.76 215.20 151.10 L 213.99 151.96 C 213.86 129.56 214.30 107.11 213.76 84.72 L 214.25 82.79 Z" fill="#b9ad24" data-index="44" style="opacity: 1;"></path>
<path d="M 215.04 84.03 C 217.26 90.64 215.39 99.83 216.00 107.00 C 215.46 121.04 217.07 137.57 215.20 151.10 C 214.76 128.76 215.08 106.38 215.04 84.03 Z" fill="#e9d706" data-index="45" style="opacity: 1;"></path>
<path d="M 213.76 84.72 C 214.30 107.11 213.86 129.56 213.99 151.96 L 213.21 152.27 C 208.74 151.97 204.28 151.84 199.81 152.15 C 199.97 150.51 200.12 148.87 200.30 147.23 C 201.55 142.39 200.86 136.94 200.97 131.89 C 204.78 129.76 201.64 135.40 203.81 135.75 C 204.01 134.16 204.12 132.57 204.32 130.98 C 206.77 132.53 205.68 136.17 206.19 138.73 C 208.53 139.14 205.08 128.74 208.57 132.28 C 211.78 134.86 207.88 125.33 211.95 129.69 C 212.09 125.84 212.01 121.99 211.92 118.14 C 211.85 107.06 212.64 95.67 213.76 84.72 Z" fill="#2e2d2d" data-index="46" style="opacity: 1; visibility: visible; fill: rgb(50, 48, 49); stroke: rgb(50, 48, 49);"></path>
<path d="M 125.73 87.77 C 126.11 94.41 126.20 101.14 125.74 107.77 C 124.56 111.92 125.18 115.78 124.82 120.02 C 124.26 118.69 123.77 117.34 123.23 116.00 C 122.83 117.03 123.56 122.09 122.15 121.76 C 121.97 119.51 121.94 117.25 121.80 114.99 C 121.09 116.77 120.62 118.53 119.41 120.06 C 118.98 118.62 119.33 116.03 118.18 115.03 C 117.99 117.33 118.01 119.63 117.84 121.93 C 116.26 121.81 117.55 114.85 116.16 118.23 C 114.84 121.93 114.90 117.04 114.17 115.80 C 113.88 110.82 114.00 105.86 114.08 100.87 C 117.03 107.59 115.45 100.01 116.17 97.27 C 117.78 97.06 116.62 103.40 117.12 104.84 C 118.99 104.92 116.90 98.78 119.24 100.87 C 122.53 103.47 119.77 97.57 121.89 97.14 C 122.07 99.99 121.92 102.87 122.12 105.72 C 123.72 106.19 122.49 100.46 123.42 99.29 C 125.72 95.58 124.58 91.80 125.73 87.77 Z" fill="#575759" data-index="47" style="visibility: visible; fill: rgb(50, 48, 49); stroke: rgb(50, 48, 49); opacity: 1;"></path>
<path d="M 74.78 89.15 C 75.47 107.79 74.51 126.58 75.26 145.23 C 75.08 147.46 75.00 149.69 74.96 151.93 L 73.20 151.77 C 72.49 131.95 73.59 111.90 72.67 92.10 C 72.56 89.33 71.10 88.77 74.78 89.15 Z" fill="#a1a39a" data-index="48" style="opacity: 1;"></path>
<path d="M 88.03 90.03 C 86.09 96.82 87.32 104.46 87.02 111.50 C 86.28 113.62 85.94 115.81 85.54 118.02 C 84.56 116.17 84.09 114.21 83.67 112.18 C 81.97 114.89 82.99 116.42 79.39 114.62 C 76.35 121.57 79.51 107.17 77.11 107.22 C 76.76 111.72 77.52 115.80 76.26 120.23 C 76.19 112.26 74.65 99.67 79.55 93.03 C 79.90 95.35 79.31 99.19 80.75 100.98 C 80.96 99.36 81.07 97.73 81.23 96.11 C 82.13 97.37 82.96 98.67 83.85 99.93 C 83.87 97.30 82.97 95.23 84.69 92.94 C 84.98 95.54 84.95 98.14 85.16 100.74 C 86.97 101.04 84.96 86.69 88.03 90.03 Z" fill="#5b5c5d" data-index="49" style="opacity: 1; visibility: visible; fill: rgb(50, 48, 49); stroke: rgb(50, 48, 49);"></path>
<path d="M 271.86 89.11 C 277.05 90.95 281.75 94.46 284.92 98.99 C 288.28 104.27 289.21 109.93 289.29 116.10 C 288.24 117.44 287.20 118.79 286.13 120.12 C 286.45 116.83 287.84 113.89 285.97 110.86 C 286.22 106.07 283.86 100.82 279.97 97.98 C 276.84 93.93 272.55 92.03 267.72 90.77 C 268.53 88.67 269.94 88.85 271.86 89.11 Z" fill="#aaaa9e" data-index="50" style="opacity: 1;"></path>
<path d="M 88.03 90.03 C 88.42 90.64 88.80 91.27 89.16 91.91 C 88.85 111.94 88.99 132.01 89.08 152.05 C 84.38 151.90 79.66 152.15 74.96 151.93 C 75.00 149.69 75.08 147.46 75.26 145.23 C 76.37 141.19 75.91 137.39 76.19 133.27 C 77.49 132.43 78.96 125.33 78.97 129.98 C 78.66 133.28 82.23 128.88 84.82 131.48 C 87.94 126.51 87.38 117.22 87.02 111.50 C 87.32 104.46 86.09 96.82 88.03 90.03 Z" fill="#323031" data-index="51" style="opacity: 1; visibility: visible; fill: rgb(50, 48, 49); stroke: rgb(50, 48, 49);"></path>
<path d="M 254.63 89.96 C 254.54 90.68 254.44 91.41 254.32 92.14 C 247.54 95.94 242.45 100.91 240.81 108.77 C 240.44 109.43 240.06 110.09 239.67 110.75 C 235.63 115.07 239.62 122.91 240.63 127.87 C 237.14 128.49 233.78 128.41 230.49 130.01 C 228.38 126.32 227.42 122.31 226.58 118.18 C 227.24 111.75 228.19 120.21 230.04 113.27 C 232.11 115.48 232.78 115.73 235.80 115.51 C 237.87 109.32 238.85 103.39 242.82 97.93 C 245.86 94.18 250.10 91.51 254.63 89.96 Z" fill="#4a4947" data-index="52" style="opacity: 1; visibility: visible; fill: rgb(50, 48, 49); stroke: rgb(50, 48, 49);"></path>
<path d="M 267.72 90.77 C 272.55 92.03 276.84 93.93 279.97 97.98 C 282.14 102.21 283.96 106.56 285.97 110.86 C 284.78 114.79 284.81 119.02 284.13 123.11 L 283.77 124.77 C 282.52 126.38 281.31 128.03 280.09 129.67 C 276.77 132.89 272.72 135.14 268.25 136.32 C 264.72 135.97 261.33 135.97 257.79 136.24 C 250.63 134.06 244.57 129.27 241.76 122.21 C 241.18 117.74 241.51 113.20 240.81 108.77 C 242.45 100.91 247.54 95.94 254.32 92.14 C 258.79 90.87 263.09 90.48 267.72 90.77 Z" fill="#f9ec03" data-index="53" style="opacity: 1;"></path>
<path d="M 101.99 90.94 L 103.86 90.95 C 102.54 93.21 92.96 91.57 89.91 91.73 C 93.72 90.55 97.94 91.08 101.99 90.94 Z" fill="#9c9645" data-index="54"></path>
<path d="M 58.95 92.08 L 60.74 92.02 C 64.72 91.99 68.69 91.96 72.67 92.10 C 73.59 111.90 72.49 131.95 73.20 151.77 L 74.96 151.93 C 79.66 152.15 84.38 151.90 89.08 152.05 L 90.14 152.14 C 88.61 154.84 85.63 153.76 83.00 154.06 C 79.59 153.58 71.97 155.64 71.14 150.91 C 70.85 134.27 70.96 111.35 71.17 94.69 C 68.97 91.16 61.75 94.52 58.95 92.08 Z" fill="#d8c902" data-index="55" style="opacity: 1;"></path>
<path d="M 89.16 91.91 L 89.91 91.73 C 90.20 111.86 89.77 132.01 90.14 152.14 L 89.08 152.05 C 88.99 132.01 88.85 111.94 89.16 91.91 Z" fill="#99913a" data-index="56" style="opacity: 1;"></path>
<path d="M 165.19 91.73 C 168.16 100.32 170.86 109.09 172.99 117.93 C 171.85 117.12 169.84 111.77 169.96 116.00 C 169.80 122.47 167.21 107.53 167.03 114.00 C 167.07 118.27 165.28 112.98 164.20 112.07 C 163.99 114.79 163.86 117.51 163.69 120.24 C 161.90 116.41 160.85 112.38 159.57 108.38 C 157.07 107.17 158.51 110.31 158.18 111.69 L 157.20 113.14 C 156.88 112.40 157.49 108.58 156.11 109.21 C 154.62 108.63 155.12 113.07 154.71 113.97 C 154.20 112.64 153.74 111.29 153.20 109.97 C 153.04 112.17 153.02 114.38 152.94 116.58 C 150.18 114.41 147.32 115.04 144.04 114.97 C 144.07 109.73 143.73 104.42 144.20 99.20 C 149.10 98.45 154.78 99.75 159.45 98.52 C 161.75 93.51 160.64 98.77 161.34 101.04 C 162.93 98.13 163.94 94.82 165.19 91.73 Z" fill="#5b5c5d" data-index="57" style="opacity: 1; visibility: visible; fill: rgb(50, 48, 49); stroke: rgb(50, 48, 49);"></path>
<path d="M 229.05 93.01 C 228.24 95.29 227.37 97.54 226.53 99.80 C 220.67 114.32 224.76 129.05 234.19 140.91 C 228.37 137.60 225.30 129.53 223.65 123.38 C 221.15 114.13 221.88 100.07 229.05 93.01 Z" fill="#d0c20e" data-index="58" style="opacity: 1;"></path>
<path d="M 287.22 96.53 C 289.57 94.49 293.86 96.84 294.40 93.94 C 297.51 100.70 303.42 106.95 297.77 114.28 C 295.56 113.21 296.29 114.20 295.27 115.89 C 294.57 113.97 295.96 111.37 293.00 113.00 C 289.56 115.09 292.02 110.41 290.28 109.04 C 289.98 111.41 289.84 113.77 289.29 116.10 C 289.21 109.93 288.28 104.27 284.92 98.99 C 285.82 96.41 286.56 89.47 287.22 96.53 Z" fill="#5e5e60" data-index="59" style="opacity: 1; visibility: visible; fill: rgb(50, 48, 49); stroke: rgb(50, 48, 49);"></path>
<path d="M 317.10 97.96 C 317.53 100.87 318.07 94.27 318.87 97.23 C 320.11 100.03 319.69 97.89 320.27 96.28 C 321.40 99.54 325.19 99.38 325.93 95.89 C 325.89 102.80 326.70 109.24 324.64 115.98 C 322.48 113.97 322.49 109.26 320.56 114.64 C 316.98 110.90 316.51 111.10 315.15 116.18 C 315.10 112.71 314.94 109.24 314.77 105.77 C 314.85 103.92 314.81 102.08 314.73 100.23 C 315.58 99.22 316.64 93.73 317.10 97.96 Z" fill="#5b5c5e" data-index="60" style="opacity: 1; visibility: visible; fill: rgb(50, 48, 49); stroke: rgb(50, 48, 49);"></path>
<path d="M 231.17 97.62 C 234.87 99.89 238.91 99.24 242.82 97.93 C 238.85 103.39 237.87 109.32 235.80 115.51 C 232.78 115.73 232.11 115.48 230.04 113.27 C 228.19 120.21 227.24 111.75 226.58 118.18 C 225.32 113.13 225.96 108.15 227.89 103.37 C 229.56 101.72 230.23 99.69 231.17 97.62 Z" fill="#5b5c5d" data-index="61" style="opacity: 1; visibility: visible; fill: rgb(50, 48, 49); stroke: rgb(50, 48, 49);"></path>
<path d="M 279.97 97.98 C 283.86 100.82 286.22 106.07 285.97 110.86 C 283.96 106.56 282.14 102.21 279.97 97.98 Z" fill="#c9bc12" data-index="62" style="opacity: 1;"></path>
<path d="M 226.53 99.80 C 226.97 101.00 227.42 102.19 227.89 103.37 C 225.96 108.15 225.32 113.13 226.58 118.18 C 227.42 122.31 228.38 126.32 230.49 130.01 C 234.12 137.60 240.35 143.70 248.04 147.09 C 247.61 147.76 247.17 148.43 246.74 149.10 C 244.84 148.37 242.95 147.63 241.05 146.91 C 238.82 144.84 236.44 142.95 234.19 140.91 C 224.76 129.05 220.67 114.32 226.53 99.80 Z" fill="#a2a194" data-index="63" style="opacity: 1;"></path>
<path d="M 314.77 105.77 C 314.94 109.24 315.10 112.71 315.15 116.18 C 314.92 121.87 314.85 127.54 315.29 133.23 C 315.02 136.22 314.88 139.22 314.72 142.22 C 313.20 137.17 314.32 131.25 314.00 126.00 C 314.35 119.36 313.16 112.23 314.77 105.77 Z" fill="#777b7c" data-index="64"></path>
<path d="M 77.11 107.22 C 79.51 107.17 76.35 121.57 79.39 114.62 C 82.99 116.42 81.97 114.89 83.67 112.18 C 84.09 114.21 84.56 116.17 85.54 118.02 C 85.94 115.81 86.28 113.62 87.02 111.50 C 87.38 117.22 87.94 126.51 84.82 131.48 C 82.23 128.88 78.66 133.28 78.97 129.98 C 78.96 125.33 77.49 132.43 76.19 133.27 C 75.95 128.91 75.84 124.57 76.26 120.23 C 77.52 115.80 76.76 111.72 77.11 107.22 Z" fill="#464647" data-index="65" style="opacity: 1; visibility: visible; fill: rgb(50, 48, 49); stroke: rgb(50, 48, 49);"></path>
<path d="M 172.96 106.90 C 175.87 109.12 175.68 113.10 175.85 116.38 C 174.53 113.32 173.44 110.22 172.96 106.90 Z" fill="#c0b61d" data-index="66"></path>
<path d="M 125.74 107.77 C 126.02 114.35 126.33 121.11 125.74 127.67 C 120.74 128.51 124.60 134.47 122.12 135.72 C 121.89 132.58 122.10 129.38 121.91 126.23 C 120.01 126.74 122.03 131.71 119.33 133.02 C 119.13 131.47 119.02 129.92 118.79 128.38 C 117.14 127.11 118.71 135.55 117.15 131.79 C 114.42 126.12 117.97 140.38 114.04 133.94 C 113.95 127.89 113.93 121.85 114.17 115.80 C 114.90 117.04 114.84 121.93 116.16 118.23 C 117.55 114.85 116.26 121.81 117.84 121.93 C 118.01 119.63 117.99 117.33 118.18 115.03 C 119.33 116.03 118.98 118.62 119.41 120.06 C 120.62 118.53 121.09 116.77 121.80 114.99 C 121.94 117.25 121.97 119.51 122.15 121.76 C 123.56 122.09 122.83 117.03 123.23 116.00 C 123.77 117.34 124.26 118.69 124.82 120.02 C 125.18 115.78 124.56 111.92 125.74 107.77 Z" fill="#434344" data-index="67" style="visibility: visible; fill: rgb(50, 48, 49); stroke: rgb(50, 48, 49); opacity: 1;"></path>
<path d="M 159.57 108.38 C 160.85 112.38 161.90 116.41 163.69 120.24 C 165.05 124.53 166.17 128.90 167.61 133.17 C 169.91 138.93 170.68 146.70 175.26 151.03 C 174.47 151.47 173.67 151.91 172.87 152.34 C 172.30 151.89 171.73 151.45 171.16 151.00 C 166.42 139.15 163.02 126.70 158.85 114.65 C 158.64 113.66 158.42 112.67 158.18 111.69 C 158.51 110.31 157.07 107.17 159.57 108.38 Z" fill="#abab9e" data-index="68" style="opacity: 1;"></path>
<path d="M 199.82 108.17 C 200.44 121.15 199.50 134.24 200.30 147.23 C 200.12 148.87 199.97 150.51 199.81 152.15 L 198.76 152.27 L 197.96 151.98 C 198.02 138.63 198.03 125.27 197.95 111.91 C 198.42 110.25 197.11 107.49 199.82 108.17 Z" fill="#9c9d9b" data-index="69" style="opacity: 1;"></path>
<path d="M 156.11 109.21 C 154.65 118.16 155.11 126.80 154.89 135.80 C 152.79 136.00 155.18 126.94 152.85 131.82 C 151.42 133.01 146.21 131.60 144.04 131.94 C 143.97 126.29 143.97 120.62 144.04 114.97 C 147.32 115.04 150.18 114.41 152.94 116.58 C 153.02 114.38 153.04 112.17 153.20 109.97 C 153.74 111.29 154.20 112.64 154.71 113.97 C 155.12 113.07 154.62 108.63 156.11 109.21 Z" fill="#454546" data-index="70" style="visibility: visible; fill: rgb(50, 48, 49); stroke: rgb(50, 48, 49); opacity: 1;"></path>
<path d="M 156.11 109.21 C 157.49 108.58 156.88 112.40 157.20 113.14 C 156.80 126.09 157.02 139.09 157.08 152.05 C 152.42 151.90 147.75 152.13 143.09 151.97 L 143.28 151.15 C 144.80 145.02 143.63 138.25 144.04 131.94 C 146.21 131.60 151.42 133.01 152.85 131.82 C 155.18 126.94 152.79 136.00 154.89 135.80 C 155.11 126.80 154.65 118.16 156.11 109.21 Z" fill="#2f2d2e" data-index="71" style="opacity: 1; visibility: visible; fill: rgb(50, 48, 49); stroke: rgb(50, 48, 49);"></path>
<path d="M 197.12 112.04 C 196.15 115.64 194.92 119.15 193.85 122.71 C 191.60 130.13 188.83 137.36 186.76 144.84 C 185.59 148.25 184.42 151.53 181.09 153.39 C 178.85 153.06 177.14 152.22 175.26 151.03 C 170.68 146.70 169.91 138.93 167.61 133.17 C 167.84 126.02 170.65 132.75 173.05 126.99 C 176.09 131.14 181.72 130.92 185.82 128.57 C 186.01 129.31 186.20 130.05 186.39 130.79 C 189.53 126.57 192.13 122.17 193.12 116.94 C 193.40 114.98 196.97 104.27 197.12 112.04 Z" fill="#353432" data-index="72" style="opacity: 1; visibility: visible; fill: rgb(50, 48, 49); stroke: rgb(50, 48, 49);"></path>
<path d="M 240.81 108.77 C 241.51 113.20 241.18 117.74 241.76 122.21 C 239.87 118.54 239.90 114.77 239.67 110.75 C 240.06 110.09 240.44 109.43 240.81 108.77 Z" fill="#b9ad1b" data-index="73"></path>
<path d="M 181.01 110.00 C 180.74 113.56 179.60 116.86 178.74 120.31 C 176.14 121.30 176.65 117.98 175.85 116.38 C 179.99 115.91 178.66 112.63 181.01 110.00 Z" fill="#c0b514" data-index="74" style="opacity: 1;"></path>
<path d="M 239.67 110.75 C 239.90 114.77 239.87 118.54 241.76 122.21 C 244.57 129.27 250.63 134.06 257.79 136.24 C 261.09 137.45 264.92 137.31 268.25 136.32 C 272.72 135.14 276.77 132.89 280.09 129.67 C 282.00 130.38 281.39 131.46 281.71 133.10 C 283.86 131.94 285.05 130.04 286.83 128.51 C 290.50 127.49 296.50 130.81 297.93 125.85 C 300.06 123.63 299.96 126.53 300.35 128.14 C 297.17 136.06 290.37 143.68 283.11 148.10 C 281.30 147.85 280.35 148.21 280.08 150.14 C 273.27 151.16 267.40 153.86 260.28 152.89 C 258.15 149.32 251.69 148.98 248.04 147.09 C 240.35 143.70 234.12 137.60 230.49 130.01 C 233.78 128.41 237.14 128.49 240.63 127.87 C 239.62 122.91 235.63 115.07 239.67 110.75 Z" fill="#343230" data-index="75" style="opacity: 1; visibility: visible; fill: rgb(50, 48, 49); stroke: rgb(50, 48, 49);"></path>
<path d="M 285.97 110.86 C 287.84 113.89 286.45 116.83 286.13 120.12 C 285.46 121.11 284.78 122.10 284.13 123.11 C 284.81 119.02 284.78 114.79 285.97 110.86 Z" fill="#c1b61c" data-index="76"></path>
<path d="M 158.18 111.69 C 158.42 112.67 158.64 113.66 158.85 114.65 C 156.97 126.70 158.38 139.86 158.14 152.14 L 157.08 152.05 C 157.02 139.09 156.80 126.09 157.20 113.14 L 158.18 111.69 Z" fill="#8e8843" data-index="77" style="opacity: 1;"></path>
<path d="M 197.12 112.04 L 197.95 111.91 C 198.03 125.27 198.02 138.63 197.96 151.98 C 195.16 149.68 197.08 147.11 196.94 144.01 C 197.01 137.40 197.20 130.69 196.85 124.08 C 196.47 121.98 195.53 122.37 193.85 122.71 C 194.92 119.15 196.15 115.64 197.12 112.04 Z" fill="#bfb408" data-index="78" style="opacity: 1;"></path>
<path d="M 158.85 114.65 C 163.02 126.70 166.42 139.15 171.16 151.00 C 170.55 151.18 169.92 151.35 169.30 151.50 C 166.71 142.33 161.79 133.52 160.78 124.05 C 160.25 124.45 159.75 124.87 159.28 125.33 C 158.02 133.80 160.36 144.10 158.14 152.14 C 158.38 139.86 156.97 126.70 158.85 114.65 Z" fill="#d7c809" data-index="79" style="opacity: 1;"></path>
<path d="M 202.26 115.01 C 203.52 116.66 203.95 122.67 205.79 117.80 C 206.59 112.99 209.08 123.78 208.94 118.02 C 208.88 112.88 209.94 116.57 211.92 118.14 C 212.01 121.99 212.09 125.84 211.95 129.69 C 207.88 125.33 211.78 134.86 208.57 132.28 C 205.08 128.74 208.53 139.14 206.19 138.73 C 205.68 136.17 206.77 132.53 204.32 130.98 C 204.12 132.57 204.01 134.16 203.81 135.75 C 201.64 135.40 204.78 129.76 200.97 131.89 C 200.67 126.17 202.04 120.71 202.26 115.01 Z" fill="#434345" data-index="80" style="opacity: 1; visibility: visible; fill: rgb(50, 48, 49); stroke: rgb(50, 48, 49);"></path>
<path d="M 289.29 116.10 C 288.57 119.87 288.06 123.47 285.79 126.69 C 285.10 126.07 284.42 125.43 283.77 124.77 L 284.13 123.11 C 284.78 122.10 285.46 121.11 286.13 120.12 C 287.20 118.79 288.24 117.44 289.29 116.10 Z" fill="#70716d" data-index="81"></path>
<path d="M 376.11 135.93 C 373.25 136.22 370.45 135.19 368.59 137.89 C 367.15 140.59 368.89 142.68 370.05 145.07 C 362.11 142.94 369.69 129.19 376.11 135.93 Z" fill="#dbca0a" data-index="82" style="opacity: 1;"></path>
<path d="M 257.79 136.24 C 261.33 135.97 264.72 135.97 268.25 136.32 C 264.92 137.31 261.09 137.45 257.79 136.24 Z" fill="#b0a422" data-index="83"></path>
<path d="M 349.94 136.14 C 351.67 137.48 351.67 150.52 349.94 151.86 C 350.04 146.62 350.03 141.38 349.94 136.14 Z" fill="#5b574a" data-index="84"></path>
<path d="M 376.11 135.93 C 376.14 139.56 375.02 138.53 372.22 139.45 C 371.68 141.73 375.34 143.86 376.28 145.92 C 375.98 147.70 375.63 149.47 375.21 151.22 C 371.95 151.82 369.22 153.45 368.06 149.16 C 369.83 148.94 372.05 149.09 373.59 148.13 C 374.95 144.67 368.91 141.93 368.59 137.89 C 370.45 135.19 373.25 136.22 376.11 135.93 Z" fill="#4c4a3c" data-index="85" style="opacity: 1; visibility: visible; fill: rgb(50, 48, 49); stroke: rgb(50, 48, 49);"></path>
<path d="M 384.01 136.01 L 384.32 137.77 C 383.90 142.42 383.92 147.08 384.09 151.75 C 383.00 151.78 381.91 151.78 380.83 151.78 C 381.04 150.89 381.25 150.00 381.47 149.11 C 384.70 146.95 379.28 138.99 384.01 136.01 Z" fill="#c1b524" data-index="86"></path>
<path d="M 384.01 136.01 C 386.06 136.07 389.66 135.42 391.28 136.74 C 394.33 141.12 389.91 143.73 391.89 148.29 C 392.22 149.63 392.53 150.97 392.81 152.31 L 391.15 151.74 C 390.33 149.50 389.64 147.30 388.71 145.11 C 386.21 146.36 387.35 148.64 387.10 150.95 C 386.39 151.24 385.67 151.49 384.94 151.70 C 384.98 147.12 385.43 142.18 384.32 137.77 L 384.01 136.01 Z" fill="#49473d" data-index="87" style="opacity: 1; visibility: visible; fill: rgb(50, 48, 49); stroke: rgb(50, 48, 49);"></path>
<path d="M 401.00 135.99 C 402.25 141.32 402.05 146.62 402.02 152.03 C 398.08 150.21 400.87 140.75 399.78 136.90 L 401.00 135.99 Z" fill="#99956f" data-index="88"></path>
<path d="M 401.00 135.99 C 406.92 134.19 402.05 145.80 404.85 148.07 C 406.28 149.06 407.76 149.23 408.23 151.15 C 406.19 151.76 404.16 152.18 402.02 152.03 C 402.05 146.62 402.25 141.32 401.00 135.99 Z" fill="#55533e" data-index="89" style="opacity: 1; visibility: visible; fill: rgb(50, 48, 49); stroke: rgb(50, 48, 49);"></path>
<path d="M 399.78 136.90 C 400.87 140.75 398.08 150.21 402.02 152.03 C 404.16 152.18 406.19 151.76 408.23 151.15 C 407.02 155.33 401.22 152.94 398.34 152.21 C 397.92 150.83 397.49 149.46 397.01 148.10 C 400.45 147.70 397.60 139.44 399.78 136.90 Z" fill="#d5c50a" data-index="90"></path>
<path d="M 368.59 137.89 C 368.91 141.93 374.95 144.67 373.59 148.13 C 372.57 146.18 372.23 145.60 370.05 145.07 C 368.89 142.68 367.15 140.59 368.59 137.89 Z" fill="#9b9984" data-index="91" style="opacity: 1;"></path>
<path d="M 384.32 137.77 C 385.43 142.18 384.98 147.12 384.94 151.70 L 384.09 151.75 C 383.92 147.08 383.90 142.42 384.32 137.77 Z" fill="#979694" data-index="92"></path>
<path d="M 388.14 138.01 C 392.08 140.10 390.92 142.20 387.12 142.94 C 386.89 140.95 386.91 139.67 388.14 138.01 Z" fill="#9b9437" data-index="93" style="opacity: 1;"></path>
<path d="M 370.05 145.07 C 372.23 145.60 372.57 146.18 373.59 148.13 C 372.05 149.09 369.83 148.94 368.06 149.16 C 370.27 147.54 370.74 147.96 370.05 145.07 Z" fill="#b7ab22" data-index="94"></path>
<path d="M 388.71 145.11 C 389.64 147.30 390.33 149.50 391.15 151.74 C 389.77 151.32 388.58 150.72 387.10 150.95 C 387.35 148.64 386.21 146.36 388.71 145.11 Z" fill="#aaa350" data-index="95" style="opacity: 1;"></path>
<path d="M 376.28 145.92 C 376.83 146.62 377.39 147.32 377.96 148.01 C 378.02 149.23 378.07 150.44 378.13 151.66 C 377.16 151.53 376.18 151.38 375.21 151.22 C 375.63 149.47 375.98 147.70 376.28 145.92 Z" fill="#c4b619" data-index="96"></path>
<path d="M 241.05 146.91 C 242.95 147.63 244.84 148.37 246.74 149.10 C 248.57 149.95 250.34 150.88 252.00 152.04 C 247.93 151.85 243.63 150.17 241.05 146.91 Z" fill="#c6ba16" data-index="97"></path>
<path d="M 248.04 147.09 C 251.69 148.98 258.15 149.32 260.28 152.89 C 257.50 152.78 254.76 152.35 252.00 152.04 C 250.34 150.88 248.57 149.95 246.74 149.10 C 247.17 148.43 247.61 147.76 248.04 147.09 Z" fill="#6f6f65" data-index="98"></path>
<path d="M 283.11 148.10 C 282.34 149.70 281.86 150.02 280.08 150.14 C 280.35 148.21 281.30 147.85 283.11 148.10 Z" fill="#a59b29" data-index="99"></path>
<path d="M 377.96 148.01 C 379.14 148.35 380.31 148.72 381.47 149.11 C 381.25 150.00 381.04 150.89 380.83 151.78 C 379.92 151.79 379.02 151.75 378.13 151.66 C 378.07 150.44 378.02 149.23 377.96 148.01 Z" fill="#65624e" data-index="100"></path>
<path d="M 391.89 148.29 C 393.26 148.32 394.62 148.26 395.99 148.18 C 394.74 151.60 394.08 151.89 398.34 152.21 C 396.31 152.87 394.84 153.27 392.81 152.31 C 392.53 150.97 392.22 149.63 391.89 148.29 Z" fill="#c4b621" data-index="101" style="opacity: 1;"></path>
<path d="M 395.99 148.18 L 397.01 148.10 C 397.49 149.46 397.92 150.83 398.34 152.21 C 394.08 151.89 394.74 151.60 395.99 148.18 Z" fill="#585849" data-index="102" style="opacity: 1;"></path>
<path d="M 280.08 150.14 C 274.88 153.39 269.04 154.21 263.00 154.06 C 258.91 153.79 255.31 155.00 252.00 152.04 C 254.76 152.35 257.50 152.78 260.28 152.89 C 267.40 153.86 273.27 151.16 280.08 150.14 Z" fill="#c5b60e" data-index="103"></path>
<path d="M 175.26 151.03 C 177.14 152.22 178.85 153.06 181.09 153.39 C 178.23 154.34 175.14 154.71 172.87 152.34 C 173.67 151.91 174.47 151.47 175.26 151.03 Z" fill="#7d7b56" data-index="104"></path>
<path d="M 110.83 152.19 L 111.91 152.08 L 114.00 151.96 C 118.36 152.00 122.72 151.97 127.07 152.06 L 128.11 152.12 C 123.79 154.94 115.23 154.78 110.83 152.19 Z" fill="#d5c600" data-index="105"></path>
<path d="M 198.76 152.27 L 199.81 152.15 C 204.28 151.84 208.74 151.97 213.21 152.27 C 209.78 153.46 202.20 153.44 198.76 152.27 Z" fill="#c8b902" data-index="106" style="opacity: 1;"></path>

<path d="M 494.39 200.20 C 498.21 200.17 493.29 202.50 492.04 202.00 C 353.69 202.00 215.35 202.00 77.00 202.00 C 60.05 202.50 42.31 200.93 25.56 202.91 C 24.98 202.34 24.41 201.76 23.85 201.17 C 168.07 200.78 312.73 201.11 457.00 201.00 C 469.29 200.49 482.31 202.04 494.39 200.20 Z" fill="#908a74" data-index="107" style="opacity: 1;"></path>
<path d="M 81.00 211.00 C 211.00 211.00 341.00 211.00 471.00 211.00 C 481.74 211.72 494.23 209.52 504.46 212.16 C 418.39 211.79 332.09 212.11 246.00 212.00 C 177.44 212.25 108.20 211.49 39.75 212.38 C 37.27 212.02 35.55 211.43 33.63 209.79 C 48.82 212.04 65.21 210.60 81.00 211.00 Z" fill="#757577" data-index="108" style="opacity: 1; visibility: visible;"></path>



<path d="M 39.76 224.38 C 111.51 223.49 184.14 224.25 256.00 224.00 C 341.84 224.24 428.53 223.52 514.25 224.36 C 504.40 225.81 493.99 224.61 484.00 225.00 C 354.00 225.00 224.00 225.00 94.00 225.00 C 76.03 224.60 57.61 225.81 39.76 224.38 Z" fill="#adaeb0" data-index="110" style="opacity: 1; visibility: hidden;"></path>

</svg>