<?xml version="1.0" encoding="utf-8"?>
<!-- Generator: Adobe Illustrator 16.0.3, SVG Export Plug-In . SVG Version: 6.00 Build 0)  -->
<!DOCTYPE svg PUBLIC "-//W3C//DTD SVG 1.1//EN" "http://www.w3.org/Graphics/SVG/1.1/DTD/svg11.dtd">
<svg version="1.1" id="Capa_1" xmlns="http://www.w3.org/2000/svg" xmlns:xlink="http://www.w3.org/1999/xlink" x="0px" y="0px"
	 width="595.279px" height="841.891px" viewBox="0 0 595.279 841.891" enable-background="new 0 0 595.279 841.891"
	 xml:space="preserve">
<path fill="#FFFFFF" d="M275.978,336.415H123.754c-4.931-0.003-8.931,3.993-8.934,8.924c0,0.002,0,0.003,0,0.005v38.074h31.038
	c6.588,0,11.938,1.717,15.949,5.032c3.823,3.153,6.024,8.445,6.024,14.215c0,6.65-2.242,11.507-6.728,14.57
	c-1.262,0.854-2.62,1.554-4.049,2.081c0.798,0.317,1.569,0.694,2.311,1.129c3.947,2.353,6.003,6.306,6.166,11.858l0.328,10.882
	c0.063,2.258,0.298,3.857,0.707,4.803c0.406,0.94,0.755,1.689,1.915,2.258v2.295H149.75c-0.378-0.718-0.708-2.264-0.987-4.637
	c-0.295-2.537-0.452-5.089-0.475-7.645c0,0-0.172-3.643-0.255-4.87c-0.224-3.247-1.213-5.614-2.987-6.937
	c-1.773-1.322-4.309-1.702-8.419-1.702h-10.229v25.836H114.82v44.684c0,4.932,3.997,8.929,8.929,8.929c0.002,0,0.004,0,0.005,0
	h152.225c4.93-0.003,8.924-4,8.924-8.929v-99.194l-18.854,54.521h-16.649l-23.816-69.181h18.784l13.315,49.267l13.689-49.267h13.529
	v-38.074c0-4.932-3.998-8.929-8.929-8.929c-0.002,0-0.004,0-0.007,0 M226.622,404.383h-16.65c-0.221-2.782-1.488-5.377-3.55-7.259
	c-1.145-1.087-4.359-2.237-7.175-2.206c-3.669,0.031-4.757,0.114-7.119,1.254c-2.361,1.139-3.465,3.409-3.465,4.684
	c0,2.08,1.562,3.854,3.644,5.1c2.081,1.243,4.875,2.602,11.482,4.683c11.375,3.603,16.651,5.922,18.962,8.104
	c2.997,2.825,6.108,6.546,6.108,14.544c0,6.493-2.716,11.732-7.831,15.548s-13.139,5.766-21.854,5.766
	c-8.715,0-15.609-1.718-20.537-5.766c-4.929-4.049-7.857-11.661-8.212-19.128h17.048c0.154,3.674,1.217,6.765,3.346,8.846
	c2.034,1.979,5.771,3.2,10.256,3.122c9.429-0.146,10.766-4.401,10.823-6.94c0.084-2.272-1.288-4.348-3.413-5.157
	c-2.046-0.843-4.402-1.446-10.09-3.272c-10.709-3.438-15.954-5.203-20.195-9.11c-3.643-3.33-6.379-7.743-6.379-13.732
	c0-6.716,2.428-12.042,7.284-15.979c4.856-3.938,11.428-5.906,19.711-5.906c7.748,0,15.06,1.655,19.888,5.771
	c5.323,4.527,7.832,9.543,7.915,17.078 M150.079,404.799c0,8.514-7.467,8.353-11.203,8.353h-12.487v-15.799h13.061
	c5.875,0,10.636,1.339,10.636,7.41"/>
<path fill="#F9F9F9" d="M318.22,402.155c-0.168-0.503-0.245-1.031-0.229-1.563l-0.108-3.705c-0.053-1.817-0.726-3.11-2.02-3.876
	c-0.24-0.145-0.493-0.269-0.755-0.37c0.468-0.172,0.913-0.399,1.327-0.676c1.468-1.006,2.199-2.597,2.196-4.771
	c0.063-1.739-0.66-3.415-1.974-4.559c-1.32-1.155-3.056-1.732-5.203-1.732h-11.406v22.614h4.726v-8.95h4.684
	c1.338,0,2.301,0.219,2.878,0.65c0.577,0.432,0.88,1.15,0.899,2.165l0.031,2.081c0.007,0.837,0.059,1.672,0.156,2.503
	c0.028,0.52,0.139,1.029,0.321,1.516h5.204v-0.6c-0.336-0.146-0.607-0.408-0.765-0.739 M312.98,390.016
	c-0.805,0.553-1.773,0.815-2.747,0.744h-5.459v-5.984h5.662c0.928-0.069,1.851,0.194,2.602,0.744
	c0.614,0.578,0.937,1.402,0.874,2.243c0.063,0.853-0.275,1.686-0.916,2.253"/>
<path fill="#F9F9F9" d="M325.91,403.508l1.483-4.6h8.575l1.528,4.6h5.013l-8.003-22.63h-5.476l-7.977,22.63h4.875H325.91z
	 M331.707,385.931l2.997,9.085h-6L331.707,385.931z"/>
<path fill="#F9F9F9" d="M356.148,399.502c-1.095,0.539-2.309,0.79-3.527,0.729c-1.222,0.071-2.432-0.27-3.435-0.97
	c-0.834-0.676-1.314-1.693-1.306-2.768h-4.555c0.114,2.428,0.982,4.31,2.603,5.646s3.855,1.996,6.708,1.982
	c2.848,0,5.103-0.622,6.765-1.868c1.628-1.158,2.569-3.055,2.508-5.053c0-2.112-0.555-3.646-1.665-4.6
	c-1.109-0.954-3.31-1.806-6.599-2.555c-1.524-0.271-3.015-0.709-4.443-1.306c-0.626-0.268-1.033-0.88-1.041-1.561
	c-0.032-0.861,0.355-1.685,1.041-2.207c0.822-0.573,1.814-0.852,2.815-0.791c1.192-0.056,2.371,0.274,3.361,0.941
	c0.842,0.592,1.362,1.538,1.415,2.565h4.6c-0.086-2.091-1.044-4.05-2.643-5.401c-1.594-1.332-3.653-1.998-6.184-1.998
	c-2.705,0-4.854,0.644-6.446,1.931c-1.572,1.26-2.457,3.189-2.384,5.204c0,1.963,0.603,3.405,1.807,4.324
	c1.203,0.919,3.601,1.787,7.19,2.602c1.951,0.432,3.221,0.843,3.814,1.244c0.62,0.417,0.97,1.133,0.915,1.878
	c-0.001,0.862-0.493,1.648-1.271,2.024"/>
<polygon fill="#F9F9F9" points="370.385,403.508 372.753,403.508 375.11,403.508 375.11,384.911 381.937,384.911 381.937,382.892 
	381.937,380.894 363.553,380.894 363.553,382.908 363.553,384.911 370.385,384.911 "/>
<path fill="#F9F9F9" d="M389.477,403.508v-8.939h4.683c1.338,0,2.301,0.219,2.878,0.65c0.633,0.534,0.969,1.34,0.9,2.165
	l0.031,2.081c0.006,0.837,0.059,1.672,0.154,2.503c0.032,0.52,0.143,1.028,0.323,1.516h5.203v-0.6
	c-0.338-0.145-0.612-0.407-0.77-0.739c-0.168-0.503-0.247-1.03-0.234-1.561l-0.109-3.705c-0.045-1.818-0.715-3.11-2.009-3.876
	c-0.242-0.144-0.497-0.268-0.76-0.37c0.468-0.173,0.913-0.399,1.327-0.676c1.467-1.006,2.201-2.597,2.201-4.772
	c0.063-1.74-0.664-3.415-1.979-4.558c-1.318-1.155-3.053-1.733-5.203-1.733H384.75v22.614H389.477z M389.477,384.775h5.661
	c0.928-0.067,1.85,0.196,2.602,0.744c0.611,0.577,0.932,1.399,0.869,2.238c0.063,0.854-0.274,1.689-0.916,2.258
	c-0.804,0.555-1.771,0.819-2.747,0.749h-5.469V384.775z"/>
<polygon fill="#F9F9F9" points="424.674,401.494 424.674,399.491 412.226,399.491 412.226,393.601 423.288,393.601 423.288,391.649 
	423.288,389.708 412.226,389.708 412.226,384.911 424.153,384.911 424.153,382.892 424.153,380.894 407.507,380.894 
	407.507,403.508 424.674,403.508 "/>
<path fill="#F9F9F9" d="M438.364,404.122c3.344,0,5.992-1.063,7.945-3.185c1.953-2.123,2.932-4.995,2.935-8.612
	c0-3.694-0.978-6.625-2.935-8.794c-1.956-2.168-4.604-3.252-7.945-3.252c-3.319,0-5.96,1.084-7.92,3.252
	c-1.96,2.168-2.939,5.1-2.939,8.794c0,3.615,0.979,6.485,2.939,8.612S435.044,404.126,438.364,404.122 M433.857,386.43
	c2.066-2.494,5.763-2.842,8.258-0.776c0.282,0.234,0.542,0.494,0.776,0.776c1.089,1.416,1.632,3.375,1.628,5.88
	c0,2.449-0.543,4.357-1.628,5.724c-2.153,2.496-5.922,2.772-8.418,0.621c-0.222-0.191-0.43-0.399-0.621-0.621
	c-1.082-1.388-1.623-3.296-1.623-5.724C432.229,389.882,432.772,387.922,433.857,386.43"/>
<path fill="#F9F9F9" d="M312.236,426.669c-1.093,0.544-2.309,0.797-3.528,0.733c-1.219,0.073-2.428-0.269-3.429-0.969
	c-0.836-0.677-1.319-1.696-1.312-2.772h-4.554c0.114,2.446,0.981,4.328,2.603,5.646c1.62,1.318,3.855,1.981,6.707,1.988
	c2.849,0,5.104-0.623,6.765-1.868c1.627-1.16,2.567-3.056,2.509-5.053c0-2.112-0.556-3.646-1.665-4.6
	c-1.109-0.954-3.31-1.807-6.599-2.556c-2.269-0.521-3.751-0.937-4.443-1.312c-0.627-0.269-1.035-0.88-1.041-1.563
	c-0.035-0.86,0.354-1.686,1.041-2.206c0.82-0.573,1.812-0.854,2.811-0.796c1.196-0.054,2.379,0.278,3.372,0.947
	c0.837,0.592,1.355,1.535,1.41,2.56h4.531c-0.068-2.092-1.014-4.059-2.602-5.422c-1.587-1.332-3.643-2.003-6.182-2.003
	c-2.707,0-4.855,0.645-6.447,1.932c-1.571,1.261-2.455,3.188-2.383,5.202c0,1.963,0.604,3.403,1.8,4.324s3.61,1.8,7.196,2.603
	c1.953,0.427,3.225,0.841,3.813,1.242c0.618,0.419,0.966,1.136,0.91,1.88c0.002,0.859-0.489,1.645-1.265,2.019"/>
<path fill="#F9F9F9" d="M330.031,408.046h-2.73l-7.998,22.614h4.876l1.481-4.601h8.576l1.529,4.601h5.011l-7.997-22.614H330.031z
	 M326.968,422.168l2.997-9.085l3.002,9.085H326.968z"/>
<polygon fill="#F9F9F9" points="348.41,430.66 350.762,430.66 350.762,412.058 357.595,412.058 357.595,410.044 357.595,408.046 
	339.211,408.046 339.211,410.06 339.211,412.058 346.037,412.058 346.037,430.66 "/>
<polygon fill="#F9F9F9" points="377.056,412.058 377.056,410.044 377.056,408.046 360.409,408.046 360.409,430.66 377.576,430.66 
	377.576,428.641 377.576,426.643 365.13,426.643 365.13,420.753 376.192,420.753 376.192,418.796 376.192,416.86 365.13,416.86 
	365.13,412.058 "/>
<polygon fill="#F9F9F9" points="381.422,430.66 397.391,430.66 397.391,428.641 397.391,426.643 386.147,426.643 386.147,408.046 
	383.774,408.046 381.422,408.046 "/>
<polygon fill="#F9F9F9" points="400.284,408.046 400.284,430.66 402.652,430.66 405.005,430.66 405.005,408.046 402.636,408.046 "/>
<polygon fill="#F9F9F9" points="426.38,410.044 426.38,408.046 407.995,408.046 407.995,410.06 407.995,412.058 414.828,412.058 
	414.828,430.655 417.196,430.655 419.553,430.655 419.553,412.058 426.38,412.058 "/>
<path fill="#F9F9F9" d="M435.532,408.046h-2.758l-7.998,22.614h4.876l1.479-4.601h8.564l1.529,4.601h5.012l-8.003-22.614H435.532z
	 M432.469,422.168l3.002-9.085l2.997,9.085H432.469z"/>
<polygon fill="#F9F9F9" points="465.266,428.641 465.266,426.643 454.016,426.643 454.016,408.046 451.648,408.046 449.297,408.046 
	449.297,430.655 465.266,430.655 "/>
<polygon fill="#F9F9F9" points="313.724,435.192 308.77,452.452 303.801,435.192 301.293,435.192 298.78,435.192 306.439,457.807 
	308.687,457.807 310.935,457.807 318.594,435.192 316.149,435.192 "/>
<polygon fill="#F9F9F9" points="326.317,447.899 337.38,447.899 337.38,445.948 337.38,444.007 326.317,444.007 326.317,439.209 
	338.242,439.209 338.242,437.195 338.242,435.192 321.597,435.192 321.597,457.807 338.763,457.807 338.763,455.793 
	338.763,453.795 326.317,453.795 "/>
<polygon fill="#F9F9F9" points="356.008,435.192 356.008,443.669 347.161,443.669 347.161,435.192 344.795,435.192 342.442,435.192 
	342.442,457.807 344.81,457.807 347.161,457.807 347.161,447.561 356.008,447.561 356.008,457.807 358.381,457.807 360.733,457.807 
	360.733,435.192 358.365,435.192 "/>
<polygon fill="#F9F9F9" points="364.973,435.192 364.973,457.807 367.346,457.807 369.703,457.807 369.703,435.192 367.33,435.192 
	"/>
<path fill="#F9F9F9" d="M383.539,438.668c1.231-0.047,2.441,0.334,3.425,1.077c0.892,0.719,1.455,1.769,1.562,2.909h4.726
	c-0.217-2.305-1.34-4.428-3.122-5.901c-1.886-1.483-4.232-2.253-6.631-2.175c-3.178,0-5.702,1.084-7.575,3.252
	c-1.873,2.169-2.816,5.1-2.83,8.794c0,3.622,0.935,6.494,2.805,8.617c1.869,2.123,4.403,3.18,7.602,3.169
	c2.725,0,4.964-0.771,6.719-2.312c1.795-1.604,2.896-3.843,3.069-6.243h-4.739c-0.088,1.239-0.646,2.399-1.563,3.241
	c-0.947,0.82-2.171,1.25-3.424,1.202c-1.647,0.072-3.218-0.703-4.162-2.056c-0.992-1.367-1.488-3.261-1.488-5.684
	c0-2.479,0.497-4.421,1.493-5.821c0.932-1.355,2.489-2.142,4.132-2.081"/>
<path fill="#F9F9F9" d="M410.265,435.192v14.247c0,1.754-0.333,3.002-1.041,3.745c-0.708,0.744-1.79,1.114-3.353,1.114
	c-1.478,0-2.582-0.404-3.313-1.213c-0.731-0.808-1.098-2.021-1.098-3.643v-14.252h-4.726v14.091c0,3.122,0.751,5.422,2.253,6.899
	c1.502,1.479,3.797,2.221,6.884,2.228c3.233,0,5.564-0.716,6.994-2.148c1.43-1.434,2.14-3.765,2.128-6.994v-14.074h-4.725H410.265
	L410.265,435.192z"/>
<polygon fill="#F9F9F9" points="424.345,435.192 421.972,435.192 419.62,435.192 419.62,457.807 435.591,457.807 435.591,455.793 
	435.591,453.795 424.345,453.795 "/>
<path fill="#F9F9F9" d="M447.833,435.192h-2.735l-8.003,22.613h4.875l1.482-4.6h8.575l1.53,4.6h5.011l-7.998-22.613H447.833z
	 M444.769,449.314l3.003-9.086l3.002,9.086H444.769z"/>
<path fill="#F9F9F9" d="M479.788,456.454c-0.168-0.503-0.247-1.031-0.233-1.563l-0.104-3.704c-0.06-1.817-0.731-3.109-2.02-3.877
	c-0.241-0.143-0.493-0.267-0.754-0.369c0.466-0.172,0.909-0.398,1.32-0.677c1.474-1.005,2.201-2.602,2.201-4.771
	c0.063-1.739-0.661-3.414-1.973-4.56c-1.321-1.154-3.056-1.731-5.203-1.731h-11.406v22.614h4.727v-8.945h4.683
	c1.343,0,2.304,0.215,2.883,0.646c0.628,0.539,0.962,1.346,0.9,2.171l0.031,2.081c0.007,0.835,0.059,1.669,0.155,2.497
	c0.029,0.52,0.139,1.028,0.322,1.515h5.203v-0.599c-0.336-0.146-0.607-0.407-0.765-0.738 M474.554,444.314
	c-0.806,0.553-1.774,0.814-2.748,0.742h-5.463v-5.982h5.661c0.929-0.067,1.851,0.198,2.602,0.749
	c0.612,0.577,0.932,1.397,0.869,2.236c0.063,0.854-0.276,1.688-0.916,2.255"/>
</svg>
