<svg xmlns="http://www.w3.org/2000/svg" width="194.717" height="36.906" viewBox="0 0 194.717 36.906"><g transform="translate(-101.448 -77.297)"><path d="M134.135,107.573a18.46,18.46,0,0,0,0-23.569Z" fill="#fff" fill-rule="evenodd"/><path d="M128.111,112.353a18.544,18.544,0,0,0,4.845-3.5V82.695a18.362,18.362,0,0,0-4.845-3.472Z" fill="#fff" fill-rule="evenodd"/><path d="M121.242,114.2a18.319,18.319,0,0,0,5.7-1.341V78.682a18.432,18.432,0,0,0-5.7-1.341Z" fill="#fff" fill-rule="evenodd"/><path d="M104.076,98.173a3.814,3.814,0,0,0-.7,2.218v3.58a18.427,18.427,0,0,1,3.786-21.536V92.862a2.741,2.741,0,0,1-.508,1.6Z" fill="#fff" fill-rule="evenodd"/><path d="M109.452,100.044a4.585,4.585,0,0,0-.919,2.975v7.3a18.262,18.262,0,0,1-3.992-4.305V100.4a2.741,2.741,0,0,1,.476-1.525l2.65-3.807a3.82,3.82,0,0,0,.671-2.2V81.4a18.555,18.555,0,0,1,4.846-2.834V93.446a3.94,3.94,0,0,1-.7,2.25Z" fill="#fff" fill-rule="evenodd"/><path d="M116.245,102.229,119.165,98a5.086,5.086,0,0,0,.9-2.91V77.3h-.14a18.545,18.545,0,0,0-5.56.855V93.457a5.107,5.107,0,0,1-.8,2.758l-3.212,4.6a3.407,3.407,0,0,0-.638,2.055v8.318a.932.932,0,0,0,.108.065,18.312,18.312,0,0,0,5.592,2.477v-8.685A5.062,5.062,0,0,1,116.245,102.229Z" fill="#fff" fill-rule="evenodd"/><path d="M154.21,83.884h5.56l6.663,17.436h.065L170,83.884h4.943l-5.181,24.51h-5.387L157.65,91.2h-.065l-3.5,17.2h-5.04Z" fill="#fff" fill-rule="evenodd"/><path d="M182.874,98.919h6.555l-1.2-9.745h-.065Zm3.569-15.035h5.528l4.088,24.511h-5.354l-.789-5.463h-9.162l-3.093,5.463h-5.7Z" fill="#fff" fill-rule="evenodd"/><path d="M206.248,93.814h6.112c1.958,0,3.634-1.1,3.634-3.223,0-1.85-1.092-2.51-2.845-2.51h-5.7Zm-2.2,10.395h6.76c2.434,0,4.218-1.342,4.218-3.948,0-2.575-2.3-2.78-4.25-2.78h-5.29Zm-.931-20.325h10.3c4.91,0,7.961,1.061,7.961,5.733a5.45,5.45,0,0,1-4.6,5.7v.065a4.882,4.882,0,0,1,3.634,4.976c0,5.322-4.456,8.026-9.367,8.026H197.974Z" fill="#fff" fill-rule="evenodd"/><path d="M235.117,104.447c5.29,0,7.929-5.625,7.929-10.265,0-3.429-1.515-6.349-5.463-6.349-5.527,0-8.036,5.592-8.036,10.3C229.558,101.494,231.2,104.447,235.117,104.447ZM237.551,83.3c6.631,0,10.881,3.634,10.881,10.5,0,8.069-4.8,15.176-13.39,15.176-6.869,0-10.882-3.948-10.882-10.849C224.171,90.2,229.277,83.3,237.551,83.3Z" fill="#fff" fill-rule="evenodd"/><path d="M257.7,94.971h4.976c2.844-.032,5.559-1.135,5.559-3.883,0-2.639-1.849-3.018-3.98-3.018h-5.116Zm-3.093-11.087h11.7c4.424-.064,7.312,1.677,7.312,6.415a6.559,6.559,0,0,1-5.636,6.587v.065c2.023.616,2.542,2.4,2.542,4.326,0,1.093-.173,2.748-.173,4.262a8.426,8.426,0,0,0,.346,2.845h-5.256a6.923,6.923,0,0,1-.238-1.644c0-1.655.27-3.332.27-4.976,0-2.369-1.406-2.953-3.537-2.953h-5.073l-2.022,9.573H249.46Z" fill="#fff" fill-rule="evenodd"/><path d="M279.67,100.261c-.173,3.461,2.2,4.532,5.289,4.532,2.164,0,4.673-1.028,4.673-3.461,0-2.4-3.158-2.888-6.208-3.808-3.094-.963-6.177-2.369-6.177-6.587,0-5.463,4.976-7.626,9.713-7.626,5.009,0,9.205,2.228,9.205,7.9h-5.116c.108-2.747-1.893-3.71-4.391-3.71-2.055,0-4.295.79-4.295,3.05,0,2.434,4.154,3.051,5.831,3.462,3.85.995,6.554,2.477,6.554,6.868,0,5.873-5.321,8.1-9.994,8.1-6.76,0-10.189-2.813-10.189-8.718Z" fill="#fff" fill-rule="evenodd"/></g></svg>