<?xml version="1.0" encoding="UTF-8"?>
<svg id="Layer_1" data-name="Layer 1" xmlns="http://www.w3.org/2000/svg" viewBox="0 0 960 960">
  <defs>
    <style>
      .cls-1 {
        fill: #0014dc;
        stroke-width: 0px;
      }
    </style>
  </defs>
  <path class="cls-1" d="M456.06,615.95C293.49,485.79,225.67,318.65,55.12,318.65v297.3h400.94Z"/>
  <path class="cls-1" d="M801.81,314.19c-33.2,0-62.88,14.44-80.09,35.64v-124.62h-40.14v297.3h33.04l4.24-31.25c11.65,15.6,35.4,35.71,81.01,35.71,61.28,0,104.69-43.81,104.69-105.9s-41.66-106.89-102.76-106.89h0ZM790.81,489.74c-44.2,0-70.6-26.32-70.6-69.09s27.04-69.09,70.6-69.09,70.6,26.32,70.6,69.09-27.04,69.09-70.6,69.09Z"/>
  <rect class="cls-1" x="611.72" y="225.21" width="40.14" height="297.3"/>
  <path class="cls-1" d="M498.27,492.32c-29.27,0-60-14.28-76.51-34.8l-27.07,25.76c26.4,29.92,60.93,43.7,101.85,43.7,56.16,0,91.4-25.02,91.4-67.2,0-87.69-152.33-32.85-152.33-82.27,0-18.08,21.09-28.33,53.94-28.33,29.27,0,50.41,9.49,63.55,23.05l27.07-25.76c-17.92-19.28-51.67-32.28-89.61-32.28-56.75,0-94.08,26.85-94.08,69.34,0,85.28,151.73,31.04,151.73,80.76,0,17.48-19.78,28.02-49.94,28.02h0Z"/>
  <path class="cls-1" d="M900.1,586.22h-433.85c89.56,73.08,227.06,148.65,433.85,148.65v-148.65Z"/>
</svg>