<svg version="1.2" xmlns="http://www.w3.org/2000/svg" viewBox="0 0 1552 1863" width="1552" height="1863">
	<title>CFW</title>
	<defs>
		<clipPath clipPathUnits="userSpaceOnUse" id="cp1">
			<path d="m10665.28-1636.51v15331.45h-11848.71v-15331.45z"/>
		</clipPath>
	</defs>
	<style>
		.s0 { fill: #007054 } 
	</style>
	<g id="Clip-Path" clip-path="url(#cp1)">
		<g id="Layer">
			<path id="Layer" class="s0" d="m629.2 1787.1l63.5-358.5c0 0 1.4-9.4 10.5-15.3 11.6-7.6 22.5-7.3 22.5-7.3h179.4l-11 62.5h-120.5l-8.7 48.8h96.1l-11.1 62.5h-96l-49.3 283zm-468.9-248.6c1.8-22.2-9.9-35-31.8-35-24.5 0-43 21-50.3 62.2-5.3 29.9-3.7 57.9 31.8 57.9 22.5 0 35.9-15.6 42.2-36h67.1c-15.8 55-61 88.2-117.3 88.2-70.5 0-105.5-43.3-93.3-112.5 12.3-69 66.5-111.9 126.1-111.9 65.1 0 95.8 32.2 91.8 87.1z"/>
			<path id="Layer" fill-rule="evenodd" class="s0" d="m202.8 1670.1l113.9-213h71.1l38.8 213h-69.6l-3.3-28h-69.5l-13 28zm137.6-148.8l-35.1 76.4h44.1zm110.5 148.8l37.5-213.1h70l-28.9 163.4h95.9l-8.7 49.7zm512.8-74.2l-13.1 74.2h-69.9l37.5-213.1h100.7c71.1 0 91.1 19.3 83.7 60.7-4.3 24.5-18.9 45.3-44.9 52.1 21 8.3 33.6 13.6 26.1 56.5-4.9 27.8-7.5 37.3 0.7 37.3l-1.1 6.5h-70.7c-1-4.7-0.3-18.4 3-37.3 4.9-27.8 1.8-36.9-30.7-36.9zm8.2-46.9h27.5c21.7 0 34.1-5.3 36.8-20.1 2.6-15.1-8-22.2-24.4-22.2h-32.5z"/>
			<path id="Layer" fill-rule="evenodd" class="s0" d="m1163.1 1670.1l12.9-28h69.6l3.3 28h69.6l-38.8-213h-71.1l-113.9 213zm78.2-72.4h-44.1l35.1-76.4zm309.5-59.3c4-54.8-26.6-87-91.8-87-59.5 0-113.8 42.9-126 111.8-12.2 69.3 22.7 112.5 93.2 112.5 56.3 0 101.5-33.1 117.5-88.1h-67.3c-6.2 20.4-19.6 36-42.2 36-35.5 0-37-28-31.7-57.9 7.2-41.2 25.7-62.2 50.3-62.2 21.8 0 33.6 12.7 31.7 34.9zm-376-1118.8h-112.9l-138.2 227.2h-1.3l-55.3-227.2h-76.7l-138.2 229.4h-1.4l-56.5-229.4h-111.8l115 447.4h40.6l159.7-276.7 69.4 276.7h38.2z"/>
			<path id="Layer" fill-rule="evenodd" class="s0" d="m1547.4 485.2l-22.8 133.4c-40.5-43.6-93.5-80.9-144.9-80.9-52.4 0-105.5 31.2-105.5 75.6 0 96.9 228.4 114 227 284.3-1.2 122.6-102.6 207.4-196.1 214.2-81.5 5.9-130.6-6.9-175.8-36.6-92.5 61.4-177.7 98-293.5 131.5-349.3 101.1-793.8 12.1-832.7-356.6-34-313.7 221.7-673.8 692-810.4 102.9-29.8 307.2-49.9 408-32.4-2.2 31.8-6.3 148-7.3 162.1-57.2-12.3-161.5-40.7-370.1 19.8-370.1 107.1-475.4 429.4-457.7 603.1 21.5 207.1 244.2 296.1 465.3 277.9 153.9-12.7 308.2-95.2 390.6-170.8l0.1-0.7c0.1 0.2 0.1 0.3 0.3 0.4q0.1-0.1 0.2-0.2c0.3 0.6 0.9 1.7 1.5 3.2 54.7 93.8 107.5 107.5 163.1 107.5 48 0 98-36.6 98-81 0-111.7-229-128.9-225.8-289.7 2.4-116.6 119.7-207.7 225.8-207.7 65.2 0 105.5 9.7 160.3 54zm-893.4 638.7l-58.1 0.2-5.5 39 58.6 0.2zm-155.9-12.7l-60.6-18.7-13.1 33.9 60.7 18.7zm-166.9-58.3l-51.9-35.8-20.4 30 51.2 36.4zm-95.5-621.7l32.4 19.1 34.6-51.9-31.8-18.3zm117.1-139.4l25.7 26.3 44-44.7-25.7-26.2zm134.8-103.3l16.8 36.2 49.4-29.5-16.2-36.2zm162.4-82.7l5.5 44.6 50-16.4-5.3-44.1zm171.9 1052l-1.5-44.3-51.3 11.4 1.4 45zm309.9-1076.3h35.2l-1.2 5.7h-14.4l-10.8 50.3h-6.1l10.7-50.3h-14.5zm77.3 0h10.9l-11.9 55.8h-6.2l9.7-46.1c0.6-2.3 1.3-4.6 1.6-7h-0.2c-1.4 3.3-2.4 5.4-3.4 7.5l-21.3 45.6h-7.4l-1.9-46.3c-0.1-1.9-0.1-3.8-0.1-6.8h-0.2c-0.5 2.4-0.8 4.8-1.4 7.3l-9.7 45.8h-6.3l11.9-55.8h11l1.7 43.6c0.1 2.3-0.1 4.7-0.6 8.2h0.1c1-2.8 2-5.5 3.3-8.3z"/>
		</g>
	</g>
</svg>