<?xml version="1.0" encoding="UTF-8"?><svg id="Capa_2" xmlns="http://www.w3.org/2000/svg" viewBox="0 0 388.96 318.29"><defs><style>.cls-1{fill:#fff;stroke-width:0px;}</style></defs><g id="Capa_1-2"><path class="cls-1" d="M41.65,293.52l-5.44,24.41h-6.96l-3.32-15.68-3.3,15.68h-6.96l-5.44-24.41h5.7l3.79,18.89,3.64-18.53h5.15l3.69,18.53,3.73-18.89h5.71Z"/><path class="cls-1" d="M42.69,307.27c0-4.92,3.14-7.66,7.81-7.66s7.61,2.74,7.61,7.68c0,1.28-.07,2.33-.07,2.97h-10.33v.69c0,2.07,1.37,3.19,4.13,3.19,2.58,0,4.58-.43,5.52-.63l.41,3.89c-.94.27-3.28.88-6.69.88-4.96,0-8.38-2.6-8.38-7.52v-3.5ZM47.71,307.51h5.59v-.61c0-2.14-.87-3.37-2.79-3.37s-2.79,1.14-2.79,3.23v.76Z"/><path class="cls-1" d="M67.03,291.9v26.03h-5.17v-26.03h5.17Z"/><path class="cls-1" d="M76.82,291.9v26.03h-5.17v-26.03h5.17Z"/><path class="cls-1" d="M97.71,310.63c0,4.94-3.17,7.66-8.6,7.66-3.3,0-5.84-.59-7.68-1.33v-25.05h5.05v9.53c1.33-.99,2.96-1.82,5.1-1.82,3.32,0,6.13,2.45,6.13,6.89v4.13ZM86.61,305.17v8.53c.67.2,1.59.4,2.67.4,2.31,0,3.26-1.41,3.26-3.35v-3.55c0-1.98-.81-3.24-2.74-3.24-1.23,0-2.34.54-3.19,1.23Z"/><path class="cls-1" d="M100.81,307.17c0-4.96,3.39-7.55,8.31-7.55s8.29,2.6,8.29,7.55v3.59c0,4.94-3.39,7.53-8.29,7.53s-8.31-2.6-8.31-7.53v-3.59ZM105.98,310.95c0,2,1.12,3.23,3.14,3.23s3.12-1.23,3.12-3.23v-3.98c0-1.98-1.1-3.24-3.12-3.24s-3.14,1.26-3.14,3.24v3.98Z"/><path class="cls-1" d="M125.67,299.98l.31,2.4c1.35-1.28,3.64-2.72,5.77-2.76l.04,4.98c-1.77.11-3.93.94-5.34,2.04v11.3h-5.17v-17.95h4.4Z"/><path class="cls-1" d="M133.91,307.27c0-4.92,3.14-7.66,7.8-7.66s7.61,2.74,7.61,7.68c0,1.28-.07,2.33-.07,2.97h-10.33v.69c0,2.07,1.37,3.19,4.13,3.19,2.58,0,4.58-.43,5.52-.63l.41,3.89c-.94.27-3.28.88-6.69.88-4.96,0-8.38-2.6-8.38-7.52v-3.5ZM138.92,307.51h5.59v-.61c0-2.14-.87-3.37-2.79-3.37s-2.79,1.14-2.79,3.23v.76Z"/><path class="cls-1" d="M166.61,310.59v7.34h-5.35v-24.41h8.69c5.03,0,8.71,2.6,8.71,7.55v2.07c0,4.99-3.68,7.44-8.71,7.44h-3.33ZM166.61,297.74v8.63h3.17c2.43,0,3.53-1.5,3.53-3.84v-1.23c0-2.22-1.19-3.57-3.53-3.57h-3.17Z"/><path class="cls-1" d="M181.19,307.27c0-4.92,3.14-7.66,7.81-7.66s7.61,2.74,7.61,7.68c0,1.28-.07,2.33-.07,2.97h-10.33v.69c0,2.07,1.37,3.19,4.13,3.19,2.58,0,4.58-.43,5.52-.63l.41,3.89c-.94.27-3.28.88-6.69.88-4.96,0-8.38-2.6-8.38-7.52v-3.5ZM186.2,307.51h5.59v-.61c0-2.14-.87-3.37-2.79-3.37s-2.79,1.14-2.79,3.23v.76Z"/><path class="cls-1" d="M198.32,299.98h2.49l.29-5.01h4.63c0,1.68.02,3.33.02,5.01h3.8v3.98h-3.69v8.13c0,1.57.72,2.02,1.86,2.02.83,0,1.8-.16,2.16-.23l.29,3.95c-.7.2-2.13.47-3.86.47-3.1,0-5.14-1.28-5.44-4.22-.27-3.05-.18-6.71-.18-10.11h-2.36v-3.98Z"/><path class="cls-1" d="M217.59,299.98l.31,2.4c1.35-1.28,3.64-2.72,5.77-2.76l.04,4.98c-1.77.11-3.93.94-5.34,2.04v11.3h-5.17v-17.95h4.4Z"/><path class="cls-1" d="M225.93,307.17c0-4.96,3.39-7.55,8.31-7.55s8.29,2.6,8.29,7.55v3.59c0,4.94-3.39,7.53-8.29,7.53s-8.31-2.6-8.31-7.53v-3.59ZM231.11,310.95c0,2,1.12,3.23,3.14,3.23s3.12-1.23,3.12-3.23v-3.98c0-1.98-1.1-3.24-3.12-3.24s-3.14,1.26-3.14,3.24v3.98Z"/><path class="cls-1" d="M251.57,291.9v26.03h-5.17v-26.03h5.17Z"/><path class="cls-1" d="M270.6,318.29c-3.41,0-6.15-.65-7.57-1.15l.7-4.42c1.26.38,3.57.97,5.97.97s4.2-.49,4.2-2.58c0-2.49-2.2-2.56-6.67-4.22-2.67-.99-3.97-3.01-3.97-6.34,0-4.22,2.96-7.39,8.27-7.39,3.37,0,5.64.61,6.69.92l-.63,4.49c-1.28-.36-3.33-.83-5.37-.83-2.36,0-3.82.9-3.82,2.6,0,1.53.7,2.25,2.65,2.87l2.7.85c3.64,1.14,5.41,2.99,5.41,7.01,0,4.6-2.67,7.23-8.56,7.23Z"/><path class="cls-1" d="M281.6,307.27c0-4.92,3.14-7.66,7.8-7.66s7.61,2.74,7.61,7.68c0,1.28-.07,2.33-.07,2.97h-10.33v.69c0,2.07,1.37,3.19,4.13,3.19,2.58,0,4.58-.43,5.52-.63l.41,3.89c-.94.27-3.28.88-6.69.88-4.96,0-8.38-2.6-8.38-7.52v-3.5ZM286.61,307.51h5.59v-.61c0-2.14-.87-3.37-2.79-3.37s-2.79,1.14-2.79,3.23v.76Z"/><path class="cls-1" d="M305.16,299.98l.31,2.4c1.35-1.28,3.64-2.72,5.77-2.76l.04,4.98c-1.77.11-3.93.94-5.34,2.04v11.3h-5.17v-17.95h4.4Z"/><path class="cls-1" d="M330.02,299.98l-5.68,17.95h-6.62l-5.68-17.95h5.44l3.53,13.16,3.55-13.16h5.44Z"/><path class="cls-1" d="M335.17,292.13c1.82,0,2.83.87,2.83,2.67s-1.01,2.67-2.83,2.67-2.79-.88-2.79-2.67.99-2.67,2.79-2.67ZM337.77,299.98v17.95h-5.17v-17.95h5.17Z"/><path class="cls-1" d="M346.73,310.32c0,2.38,1.41,3.73,3.77,3.73,1.42,0,2.97-.29,3.57-.43l.34,4.09c-.92.25-2.79.58-4.72.58-4.63,0-7.79-2.33-8.02-6.94-.02-.5-.04-1.03-.04-1.57v-1.66c0-.54.02-1.06.04-1.57.23-4.49,3.41-6.94,7.91-6.94,2.13,0,4.13.45,4.78.63l-.56,4.13c-.27-.05-1.89-.5-3.44-.5-2.31,0-3.62,1.46-3.62,3.77v2.69Z"/><path class="cls-1" d="M356.82,307.27c0-4.92,3.14-7.66,7.8-7.66s7.61,2.74,7.61,7.68c0,1.28-.07,2.33-.07,2.97h-10.33v.69c0,2.07,1.37,3.19,4.13,3.19,2.58,0,4.58-.43,5.52-.63l.41,3.89c-.94.27-3.28.88-6.69.88-4.96,0-8.38-2.6-8.38-7.52v-3.5ZM361.83,307.51h5.59v-.61c0-2.14-.87-3.37-2.79-3.37s-2.79,1.14-2.79,3.23v.76Z"/><path class="cls-1" d="M381.81,318.29c-2.76,0-5.15-.52-6.2-.92l.63-3.68c.85.29,2.96.79,4.79.79s2.88-.25,2.88-1.53c0-1.35-.94-1.75-3.93-2.47-2.9-.74-4.38-1.87-4.38-5.43,0-3.21,2.47-5.44,6.87-5.44,2.65,0,4.65.43,5.57.65l-.5,3.75c-.96-.23-2.85-.59-4.38-.59-1.71,0-2.69.43-2.69,1.68s.88,1.59,3.51,2.25c3.51.87,4.79,2.2,4.79,5.53,0,3.73-2.52,5.41-6.98,5.41Z"/><path class="cls-1" d="M200.18,90.26c-.19.12-.27.14-.31.19-1.59,1.89-3.18,3.77-4.77,5.66h5.07v-5.85Z"/><path class="cls-1" d="M178.6,96.53c.9-.08,1.81-.15,2.72-.22-.56-1.1-1.13-2.2-1.71-3.3-.93-1.75-1.68-3.6-2.88-5.45-.47,3.12-.93,6.22-1.39,9.31,1.08-.12,2.16-.24,3.25-.34,0,0,.01,0,.02,0Z"/><path class="cls-1" d="M192.59,24.6c.23.5.4.68.77.08,1.57-2.53,3.16-5.04,4.76-7.55.4-.63.11-.74-.47-.74-1.32,0-2.64,0-3.96,0h0c-1.32,0-2.64.02-3.96,0-.65,0-.87.16-.55.83,1.15,2.45,2.28,4.9,3.4,7.36Z"/><path class="cls-1" d="M189.98,95.79c2.31-2.74,4.62-5.48,6.93-8.23.32-.38.97-.71.82-1.2-.18-.61-.94-.37-1.43-.45-5.34-.85-10.7-1.67-16.04-2.49-.2.02-.44-.09-.56.14-.15.28.08.52.2.75,1.95,3.9,3.91,7.79,5.87,11.69.23-.01.46-.03.7-.04,1.17-.06,2.35-.12,3.52-.16Z"/><path class="cls-1" d="M187,64.69c.4-.45.22-.78-.02-1.17-1.1-1.83-2.19-3.66-3.3-5.48-.63-1.04-1.3-2.06-2.06-3.26-.97,6.45-1.9,12.66-2.86,19.08.28-.22.37-.27.44-.34,2.6-2.94,5.19-5.89,7.8-8.82Z"/><path class="cls-1" d="M189.44,31.03c.68-1.04.9-1.99.12-3.06-.27-.38-.4-.85-.6-1.28-.72-1.59-1.43-3.19-2.15-4.78-.1.02-.2.04-.3.07-.84,5.7-1.68,11.39-2.52,17.09.09.02.18.04.27.06,1.72-2.7,3.42-5.42,5.18-8.09Z"/><path class="cls-1" d="M200.18,56.21c-.13.03-.21.03-.25.07-2.31,2.6-4.62,5.21-6.93,7.82-.37.42-.37.82-.09,1.29.88,1.45,1.74,2.9,2.6,4.36,1.5,2.52,3,5.03,4.66,7.82v-21.35Z"/><path class="cls-1" d="M197.78,48.07c.74.09.94-.14.62-.85-1.89-4.12-3.76-8.25-5.64-12.39-.24-.53-.46-.75-.86-.1-2.33,3.77-4.67,7.54-7.03,11.29-.44.7-.2.82.49.9,4.13.48,8.3.58,12.42,1.14Z"/><path class="cls-1" d="M180.28,78.45c-.47.52-.41.8.31.87.17.02.33.07.5.08,3.47.33,6.87,1.11,10.33,1.55,1.94.25,3.88.59,5.91.91.85-.02.34-.5.15-.83-2.38-3.98-4.76-7.95-7.15-11.92-.66-1.1-.79-1.09-1.64-.12-1.61,1.83-3.24,3.64-4.85,5.46-1.19,1.34-2.36,2.68-3.55,4.01Z"/><path class="cls-1" d="M195.31,30.56c.64,1.38,1.28,2.76,1.92,4.15.92,1.99,1.84,3.97,2.76,5.96.06-.03.12-.06.18-.09v-18.53c-.26,0-.31.12-.38.23-1.5,2.38-2.99,4.76-4.5,7.13-.26.41-.16.77.01,1.15Z"/><path class="cls-1" d="M184.74,51.81c1.71,2.85,3.43,5.69,5.13,8.54.27.45.48.49.83.09.57-.67,1.18-1.31,1.75-1.99,1.57-1.87,3.28-3.61,4.78-5.54.45-.58.29-.72-.32-.78-.17-.02-.33-.06-.5-.07-3.75-.31-7.49-.62-11.24-.93-.2-.07-.44-.15-.57.03-.18.24.03.45.15.64Z"/><path class="cls-1" d="M209.19,96.11h.38c-.05-.06-.09-.11-.14-.17-1.54-1.83-3.08-3.66-4.76-5.67-.1.8-.18,2.97-.23,5.83h4.75Z"/><path class="cls-1" d="M226.81,97.81c.92.13,1.83.28,2.75.42-.53-3.55-1.07-7.12-1.6-10.71-.2.25-.28.31-.32.4-1.58,3.12-3.16,6.25-4.75,9.37.77.1,1.54.19,2.31.3.54.07,1.07.14,1.61.22Z"/><path class="cls-1" d="M218.01,96.74c.16.02.31.04.47.05.18-.29.36-.59.51-.9.99-2.04,2.06-4.05,3.09-6.07.95-1.87,1.9-3.75,2.84-5.63.17-.35.48-.79-.31-.82-.82.14-1.66.28-2.49.41-4.79.73-9.57,1.47-14.37,2.16-.95.14-.9.47-.39,1.07.53.62,1.06,1.23,1.59,1.85,2.13,2.54,4.25,5.08,6.37,7.62.6.06,1.21.11,1.81.17.3.03.59.05.89.08Z"/><path class="cls-1" d="M207.2,81.1c-.17.3-.5.71.09.73.95-.14,1.75-.26,2.56-.38,4.75-.73,9.49-1.47,14.24-2.19.74-.11.65-.38.25-.82-.87-.95-1.72-1.91-2.56-2.88-2-2.29-4-4.59-5.99-6.9-.52-.61-.85-.58-1.27.14-1.66,2.83-3.37,5.63-5.06,8.45-.76,1.28-1.52,2.56-2.27,3.85Z"/><path class="cls-1" d="M219.53,46.96c.63-.05.77-.29.39-.83-.43-.61-.82-1.25-1.22-1.88-2.08-3.29-4.16-6.59-6.33-10.02-.17.25-.26.35-.32.47-1.95,4.21-3.9,8.42-5.84,12.64-.46.99.33.72.76.69,2.16-.16,4.32-.35,6.48-.54,2.02-.17,4.05-.35,6.07-.52Z"/><path class="cls-1" d="M204.76,76.92c.21-.3.44-.59.63-.9,2.1-3.47,4.19-6.96,6.32-10.42.42-.69.42-1.16-.15-1.78-2.03-2.23-3.99-4.51-5.99-6.77-.31-.35-.57-.81-1.16-.97.18,6.98-.17,13.87.36,20.83Z"/><path class="cls-1" d="M217.89,64.83c1.36,1.55,2.71,3.11,4.08,4.66,1.2,1.36,2.42,2.71,3.63,4.06.08-.05.16-.09.24-.14-.91-6.09-1.81-12.19-2.72-18.28-.11-.02-.22-.04-.33-.05-1.74,2.93-3.48,5.86-5.21,8.79-.26.44.07.69.31.96Z"/><path class="cls-1" d="M207.41,52.97c2.11,2.38,4.24,4.74,6.33,7.14.56.64.85.75,1.34-.11,1.39-2.48,2.88-4.9,4.31-7.36.25-.42.82-.86.56-1.32-.24-.44-.87,0-1.33-.12-3.65.21-7.27.78-10.92.88-.23,0-.54,0-.64.23-.14.3.19.48.35.66Z"/><path class="cls-1" d="M209.36,29.39c-1.58-2.55-3.17-5.1-4.75-7.64-.14,6.48-.13,12.88-.13,19.29,1.72-3.54,3.34-7.11,4.95-10.68.15-.33.12-.67-.07-.97Z"/><path class="cls-1" d="M214.77,30.15c1.92,3.1,3.85,6.2,5.77,9.31.07-.02.15-.04.22-.07-.88-5.84-1.75-11.68-2.67-17.82-1.24,2.66-2.35,5.04-3.45,7.42-.19.41-.09.8.14,1.16Z"/><path class="cls-1" d="M211.36,24.79c.26.42.48.41.7-.05,1.15-2.52,2.31-5.04,3.47-7.55.27-.59.07-.79-.54-.78-1.32.02-2.64,0-3.96,0-1.35,0-2.71,0-4.06,0-.62,0-.72.26-.42.74,1.6,2.55,3.2,5.1,4.8,7.64Z"/><path class="cls-1" d="M188.22,97.89c.59-.7,1.18-1.4,1.77-2.1-1.18.04-2.35.1-3.52.16-.23.01-.46.03-.7.04.29.58.58,1.16.87,1.73.62,1.24.66,1.25,1.58.16Z"/><path class="cls-1" d="M255.37,103.97c-2.33-.68-4.68-1.31-7.04-1.9-1.18-.3-2.36-.58-3.55-.86-3.56-.83-7.14-1.57-10.74-2.22-1.49-.27-2.98-.51-4.48-.75-.92-.14-1.83-.29-2.75-.42-.53-.08-1.07-.14-1.61-.22-.77-.11-1.54-.2-2.31-.3-.44-.05-.87-.12-1.31-.17-.03,0-.06,0-.09-.01-1-.12-2-.23-3.01-.33-.31.51-.63,1.02-.82,1.6-.22.67-.53.27-.77-.02-.53-.63-1.05-1.26-1.58-1.89-.31-.03-.62-.06-.94-.09-1.26-.11-2.52-.2-3.78-.29h-20.85l.3-.32s-.03,0-.05,0c-.59.7-1.17,1.4-1.77,2.1-.93,1.1-.96,1.08-1.58-.16-.29-.58-.58-1.16-.87-1.73-.83.05-1.66.1-2.49.15,0,0,0,0,0,0-.65.04-1.3.11-1.96.16-.91.07-1.81.14-2.72.22,0,0-.01,0-.02,0-1.09.1-2.17.22-3.25.34-.47.05-.94.09-1.41.15-.19.02-.39.04-.58.07-.4.05-.8.09-1.2.14-3.7.47-7.37,1.04-11.03,1.72-1.22.23-2.43.47-3.65.72-4.85,1.01-9.65,2.21-14.39,3.61-2.17.64-4.33,1.32-6.47,2.05-1.43.48-2.85.98-4.26,1.5-1.41.52-2.82,1.06-4.22,1.62-6.3,2.51-12.45,5.4-18.4,8.69,2.92-1.18,5.87-2.29,8.84-3.32,8.91-3.11,18.03-5.58,27.27-7.5,3.12-.65,6.25-1.23,9.39-1.76,1.05-.18,2.1-.34,3.15-.51,4.2-.65,8.41-1.19,12.64-1.63,1.19-.12,2.38-.24,3.56-.35,1.08-.1,2.16-.19,3.24-.28.03,0,.05,0,.08,0,1.54-.12,3.09-.24,4.63-.34,0,0,0,0,0,0h0c.47-.03.93-.06,1.4-.08.28-.02.56-.03.83-.05,1.07-.06,2.15-.12,3.22-.17.99-.04,1.98-.06,2.97-.08.53-.01,1.06-.03,1.6-.04.91-.02,1.82-.02,2.73-.03.54,0,1.08-.01,1.62-.01,1.1,0,2.2.01,3.3.03.11,0,.21,0,.32,0,.19,0,.38,0,.56,0,1.11.02,2.22.05,3.33.08.25,0,.5.01.75.02h0s0,0,0,0c1.73.06,3.47.13,5.2.23.01,0,.02,0,.03,0,1.28.07,2.56.16,3.85.25.44.03.87.05,1.31.08.02,0,.05,0,.07,0,1.65.12,3.29.26,4.93.42.06,0,.12,0,.18.02.03,0,.05,0,.08,0,2.11.2,4.21.42,6.31.67.28.03.57.06.85.1.79.1,1.57.21,2.36.31,2.29.3,4.59.62,6.87.98,5.12.8,10.21,1.74,15.29,2.82,1.56.33,3.11.67,4.66,1.03,1.55.35,3.1.72,4.64,1.1,9.27,2.27,18.46,4.96,27.54,8.02-10.79-5.36-22.18-9.75-33.94-13.15Z"/><path class="cls-1" d="M217.66,98.39c.19-.58.51-1.09.82-1.6-.16-.02-.31-.04-.47-.05-.3-.03-.59-.06-.89-.08-.6-.06-1.21-.11-1.81-.17.53.63,1.05,1.26,1.58,1.89.25.3.55.69.77.02Z"/><rect class="cls-1" x="181.93" y="13.01" width="20.27" height="5"/><rect class="cls-1" x="201.76" y="12.76" width="20.28" height="5" transform="translate(-.32 5.3) rotate(-1.43)"/><polygon class="cls-1" points="205.83 12.71 201.76 13.22 201.76 1.02 205.83 .51 205.83 12.71"/><polygon class="cls-1" points="201.76 13.22 197.7 12.71 197.7 .51 201.76 1.02 201.76 13.22"/><polyline class="cls-1" points="197.7 .51 197.98 .45 201.76 0 205.83 .51 201.76 1.02"/><polygon class="cls-1" points="152.92 147.17 131.84 226.48 109.18 147.17 74.89 147.17 52.51 226.4 31.32 147.17 0 147.17 33.42 266.15 68.41 266.15 91.16 186.87 113.9 266.15 148.9 266.15 182.67 147.17 152.92 147.17"/><path class="cls-1" d="M183.39,147.17h55.99c14.35,0,25.34,3.18,32.98,9.54,7.64,6.36,11.46,16.59,11.46,30.71,0,9.33-1.78,17-5.34,23.01-3.56,6.01-8.63,10.44-15.22,13.3-6.59,2.86-14.55,4.29-23.88,4.29h-25.2v38.14h-30.79v-118.98ZM249.01,198.43c2.68-2.21,4.02-5.77,4.02-10.67s-1.37-8.66-4.11-10.94c-2.74-2.27-7.2-3.41-13.38-3.41h-21.35v28.34h21.35c6.3,0,10.79-1.11,13.47-3.32Z"/><path class="cls-1" d="M381.17,207.01c-5.19-5.71-12.74-9.51-22.66-11.37l-25.2-4.72c-5.83-1.05-9.83-2.24-11.99-3.59-2.16-1.34-3.24-3.29-3.24-5.86,0-1.98.73-3.73,2.19-5.25,1.46-1.51,3.56-2.68,6.3-3.5,2.74-.81,5.98-1.22,9.71-1.22,6.76,0,11.72,1.31,14.87,3.94s5.07,5.92,5.77,9.89h31.84v-5.07c-1.98-11.2-7.17-19.8-15.57-25.81-8.4-6.01-20.65-9.01-36.74-9.01-10.27,0-19.16,1.49-26.68,4.46-7.52,2.97-13.3,7.26-17.32,12.86-4.02,5.6-6.04,12.25-6.04,19.95,0,10.85,3.06,18.96,9.19,24.32,6.12,5.37,15.07,9.16,26.86,11.37l21,3.85c5.48,1.05,9.13,2.25,10.94,3.59,1.81,1.34,2.71,3.3,2.71,5.86,0,2.1-.73,3.91-2.19,5.42-1.46,1.52-3.65,2.68-6.56,3.5-2.92.82-6.59,1.23-11.02,1.23-7,0-12.25-1.28-15.75-3.85-3.5-2.56-5.72-6.01-6.65-10.32h-.01s0-5.99,0-5.99h-32.18v11.06c1.98,11.66,7.49,20.44,16.53,26.33,9.04,5.89,21.55,8.84,37.53,8.84,11.2,0,20.7-1.52,28.52-4.55,7.81-3.03,13.7-7.38,17.67-13.04,3.96-5.66,5.95-12.39,5.95-20.21,0-9.68-2.6-17.38-7.79-23.1Z"/></g></svg>