<?xml version="1.0" encoding="UTF-8" standalone="no"?>
<!-- Created with Inkscape (http://www.inkscape.org/) -->

<svg
   xmlns:dc="http://purl.org/dc/elements/1.1/"
   xmlns:cc="http://creativecommons.org/ns#"
   xmlns:rdf="http://www.w3.org/1999/02/22-rdf-syntax-ns#"
   xmlns:svg="http://www.w3.org/2000/svg"
   xmlns="http://www.w3.org/2000/svg"
   xmlns:sodipodi="http://sodipodi.sourceforge.net/DTD/sodipodi-0.dtd"
   xmlns:inkscape="http://www.inkscape.org/namespaces/inkscape"
   width="224.85995"
   height="42.557499"
   viewBox="0 0 224.85995 42.557499"
   id="svg7676"
   version="1.1"
   inkscape:version="0.91 r13725"
   sodipodi:docname="superior energy new.svg">
  <defs
     id="defs7678" />
  <sodipodi:namedview
     id="base"
     pagecolor="#ffffff"
     bordercolor="#666666"
     borderopacity="1.0"
     inkscape:pageopacity="0.0"
     inkscape:pageshadow="2"
     inkscape:zoom="4.0247273"
     inkscape:cx="112.42998"
     inkscape:cy="21.278749"
     inkscape:document-units="px"
     inkscape:current-layer="layer1"
     showgrid="false"
     fit-margin-top="0"
     fit-margin-left="0"
     fit-margin-right="0"
     fit-margin-bottom="0"
     units="px"
     inkscape:window-width="1280"
     inkscape:window-height="744"
     inkscape:window-x="-4"
     inkscape:window-y="-4"
     inkscape:window-maximized="1" />
  <metadata
     id="metadata7681">
    <rdf:RDF>
      <cc:Work
         rdf:about="">
        <dc:format>image/svg+xml</dc:format>
        <dc:type
           rdf:resource="http://purl.org/dc/dcmitype/StillImage" />
        <dc:title></dc:title>
      </cc:Work>
    </rdf:RDF>
  </metadata>
  <g
     inkscape:label="Layer 1"
     inkscape:groupmode="layer"
     id="layer1"
     transform="translate(-256.64146,-436.29774)">
    <g
       id="g7087"
       transform="matrix(1.25,0,0,-1.25,322.07145,461.76774)">
      <path
         d="M 0,0 C -0.142,0.13 -0.213,0.355 -0.035,0.549 L 2.662,3.356 C 2.803,3.517 3.016,3.517 3.194,3.388 4.791,2.227 6.955,1.13 9.511,1.13 c 2.519,0 3.939,1.064 3.939,2.612 0,1.292 -0.852,2.098 -3.726,2.452 L 8.446,6.356 c -4.897,0.613 -7.63,2.71 -7.63,6.581 0,4.033 3.336,6.71 8.553,6.71 3.194,0 6.175,-0.871 8.197,-2.29 0.213,-0.13 0.249,-0.258 0.072,-0.484 l -2.165,-2.936 c -0.142,-0.162 -0.32,-0.193 -0.497,-0.097 -1.845,1.097 -3.62,1.678 -5.607,1.678 -2.13,0 -3.23,-1.001 -3.23,-2.388 0,-1.258 0.994,-2.064 3.762,-2.419 l 1.278,-0.162 c 4.968,-0.612 7.594,-2.677 7.594,-6.645 0,-3.968 -3.229,-6.903 -9.475,-6.903 C 5.536,-2.999 1.881,-1.645 0,0"
         style="fill:#555759;fill-opacity:1;fill-rule:nonzero;stroke:none"
         id="path7089"
         inkscape:connector-curvature="0" />
    </g>
    <g
       id="g7091"
       transform="matrix(1.25,0,0,-1.25,361.28771,465.07399)">
      <path
         d="m 0,0 c -0.213,0 -0.355,0.129 -0.355,0.323 l 0,1.129 -0.035,0 c -0.887,-1.065 -2.236,-1.806 -4.401,-1.806 -3.797,0 -5.784,2.419 -5.784,5.806 l 0,9.839 c 0,0.194 0.142,0.323 0.354,0.323 l 4.259,0 c 0.213,0 0.355,-0.129 0.355,-0.323 l 0,-8.968 c 0,-1.677 0.887,-2.839 2.626,-2.839 1.704,0 2.626,1.129 2.626,2.839 l 0,8.968 c 0,0.194 0.142,0.323 0.355,0.323 l 4.259,0 c 0.213,0 0.355,-0.129 0.355,-0.323 l 0,-14.968 C 4.614,0.129 4.472,0 4.259,0"
         style="fill:#555759;fill-opacity:1;fill-rule:nonzero;stroke:none"
         id="path7093"
         inkscape:connector-curvature="0" />
    </g>
    <g
       id="g7095"
       transform="matrix(1.25,0,0,-1.25,371.35021,472.33274)">
      <path
         d="m 0,0 c -0.213,0 -0.355,0.13 -0.355,0.323 l 0,20.775 c 0,0.195 0.142,0.323 0.355,0.323 l 4.258,0 c 0.214,0 0.355,-0.128 0.355,-0.323 l 0,-1.129 0.036,0 c 0.781,1.065 2.236,1.807 4.507,1.807 2.875,0 4.933,-1.258 5.82,-3.742 0.426,-1.226 0.603,-2.388 0.603,-4.42 0,-2 -0.177,-3.193 -0.603,-4.42 C 14.089,6.743 12.031,5.453 9.156,5.453 6.885,5.453 5.43,6.194 4.649,7.259 l -0.036,0 0,-6.936 C 4.613,0.13 4.472,0 4.258,0 L 0,0 Z m 10.221,10.937 c 0.212,0.613 0.319,1.29 0.319,2.677 0,1.387 -0.107,2.065 -0.319,2.678 -0.391,1.129 -1.314,1.677 -2.662,1.677 -1.313,0 -2.236,-0.548 -2.626,-1.677 -0.213,-0.613 -0.32,-1.291 -0.32,-2.678 0,-1.387 0.107,-2.064 0.32,-2.677 0.39,-1.098 1.313,-1.678 2.626,-1.678 1.348,0 2.271,0.58 2.662,1.678"
         style="fill:#555759;fill-opacity:1;fill-rule:nonzero;stroke:none"
         id="path7097"
         inkscape:connector-curvature="0" />
    </g>
    <g
       id="g7099"
       transform="matrix(1.25,0,0,-1.25,393.48646,459.95274)">
      <path
         d="m 0,0 c -0.355,0.968 -0.603,2.097 -0.603,3.71 0,1.646 0.213,2.775 0.568,3.743 0.993,2.806 3.726,4.419 7.381,4.419 3.797,0 6.424,-1.645 7.417,-4.387 0.355,-1.033 0.568,-2.162 0.568,-4.808 0,-0.193 -0.142,-0.322 -0.39,-0.322 l -10.399,0 C 4.401,2.355 4.33,2.29 4.33,2.162 4.365,1.839 4.436,1.548 4.542,1.291 c 0.462,-1.356 1.775,-2.065 3.549,-2.065 1.704,0 2.946,0.548 3.94,1.387 0.177,0.129 0.354,0.162 0.497,0 l 2.342,-2 c 0.177,-0.129 0.177,-0.322 0.035,-0.452 C 13.272,-3.42 10.753,-4.451 7.594,-4.451 3.691,-4.451 0.994,-2.807 0,0 m 10.22,5.356 c 0.142,0 0.213,0.064 0.213,0.193 0,0.484 -0.071,0.838 -0.177,1.161 C 9.866,7.775 8.801,8.42 7.382,8.42 5.962,8.42 4.897,7.775 4.507,6.71 4.401,6.387 4.33,6.033 4.33,5.549 4.33,5.42 4.401,5.356 4.542,5.356"
         style="fill:#555759;fill-opacity:1;fill-rule:nonzero;stroke:none"
         id="path7101"
         inkscape:connector-curvature="0" />
    </g>
    <g
       id="g7103"
       transform="matrix(1.25,0,0,-1.25,416.06771,465.07399)">
      <path
         d="m 0,0 c -0.213,0 -0.355,0.129 -0.355,0.323 l 0,14.968 c 0,0.194 0.142,0.323 0.355,0.323 l 4.259,0 c 0.213,0 0.354,-0.129 0.354,-0.323 l 0,-1.322 0.036,0 c 0.816,1.258 2.377,2 4.471,2 1.136,0 2.271,-0.355 3.017,-0.936 0.178,-0.129 0.213,-0.257 0.107,-0.452 l -1.988,-3.29 C 10.114,11.129 9.972,11.129 9.759,11.227 8.943,11.711 8.127,11.969 7.275,11.936 5.43,11.872 4.613,10.646 4.613,8.549 l 0,-8.226 C 4.613,0.129 4.472,0 4.259,0"
         style="fill:#555759;fill-opacity:1;fill-rule:nonzero;stroke:none"
         id="path7105"
         inkscape:connector-curvature="0" />
    </g>
    <g
       id="g7107"
       transform="matrix(1.25,0,0,-1.25,433.41521,442.45149)">
      <path
         d="m 0,0 c -0.213,0 -0.355,0.13 -0.355,0.323 l 0,3.194 c 0,0.193 0.142,0.322 0.355,0.322 l 4.259,0 c 0.213,0 0.354,-0.129 0.354,-0.322 l 0,-3.194 C 4.613,0.13 4.472,0 4.259,0 L 0,0 Z m 0,-18.098 c -0.213,0 -0.355,0.129 -0.355,0.323 l 0,14.968 c 0,0.194 0.142,0.323 0.355,0.323 l 4.259,0 c 0.213,0 0.354,-0.129 0.354,-0.323 l 0,-14.968 c 0,-0.194 -0.141,-0.323 -0.354,-0.323"
         style="fill:#555759;fill-opacity:1;fill-rule:nonzero;stroke:none"
         id="path7109"
         inkscape:connector-curvature="0" />
    </g>
    <g
       id="g7111"
       transform="matrix(1.25,0,0,-1.25,442.86271,460.03399)">
      <path
         d="m 0,0 c -0.39,1.129 -0.568,2.227 -0.568,3.775 0,1.548 0.178,2.645 0.568,3.775 0.993,2.838 3.833,4.386 7.453,4.386 3.62,0 6.458,-1.548 7.452,-4.386 C 15.296,6.42 15.473,5.323 15.473,3.775 15.473,2.227 15.296,1.129 14.905,0 13.911,-2.838 11.073,-4.387 7.453,-4.387 3.833,-4.387 0.993,-2.838 0,0 m 10.114,1.098 c 0.249,0.709 0.32,1.354 0.32,2.677 0,1.322 -0.071,1.967 -0.32,2.677 C 9.724,7.55 8.765,8.13 7.453,8.13 6.14,8.13 5.181,7.55 4.791,6.452 4.542,5.742 4.472,5.097 4.472,3.775 4.472,2.452 4.542,1.807 4.791,1.098 5.181,0 6.14,-0.58 7.453,-0.58 c 1.312,0 2.271,0.58 2.661,1.678"
         style="fill:#555759;fill-opacity:1;fill-rule:nonzero;stroke:none"
         id="path7113"
         inkscape:connector-curvature="0" />
    </g>
    <g
       id="g7115"
       transform="matrix(1.25,0,0,-1.25,465.62271,465.07399)">
      <path
         d="m 0,0 c -0.213,0 -0.355,0.129 -0.355,0.323 l 0,14.968 c 0,0.194 0.142,0.323 0.355,0.323 l 4.259,0 c 0.213,0 0.354,-0.129 0.354,-0.323 l 0,-1.322 0.036,0 c 0.816,1.258 2.377,2 4.471,2 1.136,0 2.271,-0.355 3.017,-0.936 0.177,-0.129 0.212,-0.257 0.107,-0.452 l -1.988,-3.29 C 10.114,11.129 9.972,11.129 9.759,11.227 8.943,11.711 8.126,11.969 7.275,11.936 5.43,11.872 4.613,10.646 4.613,8.549 l 0,-8.226 C 4.613,0.129 4.472,0 4.259,0"
         style="fill:#555759;fill-opacity:1;fill-rule:nonzero;stroke:none"
         id="path7117"
         inkscape:connector-curvature="0" />
    </g>
    <g
       id="g7119"
       transform="matrix(1.25,0,0,-1.25,317.50895,436.79774)">
      <path
         d="m 0,0 -25.779,0 c -3.121,0 -5.514,-0.999 -6.877,-2.618 -0.005,-0.004 -0.017,-0.011 -0.021,-0.015 l -7.508,-9.22 c -0.252,-0.31 -0.012,-0.563 0.535,-0.563 l 11.048,0 c 0.547,0 1.2,0.253 1.453,0.562 l 2.646,3.244 c 0.252,0.309 0.905,0.562 1.451,0.562 l 10.918,0 c 5.268,0 6.49,1.876 6.742,2.185 0,0 1.394,1.832 2.878,3.669 C -0.931,-0.235 0,-0.165 0,-0.165"
         style="fill:#72b1c8;fill-opacity:1;fill-rule:nonzero;stroke:none"
         id="path7121"
         inkscape:connector-curvature="0" />
    </g>
    <g
       id="g7123"
       transform="matrix(1.25,0,0,-1.25,257.14146,465.92899)">
      <path
         d="m 0,0 25.779,0 c 3.12,0 5.514,0.999 6.877,2.618 0.005,0.004 0.017,0.011 0.021,0.015 l 7.508,9.22 c 0.252,0.31 0.012,0.563 -0.535,0.563 l -11.048,0 c -0.547,0 -1.2,-0.253 -1.453,-0.562 L 24.503,8.61 C 24.251,8.301 23.598,8.048 23.052,8.048 l -10.918,0 c -5.268,0 -6.49,-1.876 -6.742,-2.185 0,0 -1.394,-1.832 -2.879,-3.669 C 0.931,0.235 0,0.165 0,0.165"
         style="fill:#093266;fill-opacity:1;fill-rule:nonzero;stroke:none"
         id="path7125"
         inkscape:connector-curvature="0" />
    </g>
    <g
       id="g7127"
       transform="matrix(1.25,0,0,-1.25,385.57521,472.17274)">
      <path
         d="m 0,0 c 0,0.043 0.037,0.072 0.093,0.072 l 3.792,0 C 3.94,0.072 3.977,0.043 3.977,0 l 0,-0.458 C 3.977,-0.502 3.94,-0.53 3.885,-0.53 l -3.004,0 c -0.037,0 -0.056,-0.015 -0.056,-0.044 l 0,-1.452 c 0,-0.029 0.019,-0.044 0.056,-0.044 l 2.549,0 c 0.056,0 0.093,-0.029 0.093,-0.073 l 0,-0.457 c 0,-0.044 -0.037,-0.073 -0.093,-0.073 l -2.549,0 c -0.037,0 -0.056,-0.014 -0.056,-0.043 l 0,-1.504 c 0,-0.028 0.019,-0.043 0.056,-0.043 l 3.004,0 c 0.055,0 0.092,-0.029 0.092,-0.073 l 0,-0.457 c 0,-0.044 -0.037,-0.073 -0.092,-0.073 l -3.792,0 C 0.037,-4.866 0,-4.837 0,-4.793"
         style="fill:#555759;fill-opacity:1;fill-rule:nonzero;stroke:none"
         id="path7129"
         inkscape:connector-curvature="0" />
    </g>
    <g
       id="g7131"
       transform="matrix(1.25,0,0,-1.25,391.75521,472.17274)">
      <path
         d="m 0,0 c 0,0.043 0.037,0.072 0.093,0.072 l 0.593,0 C 0.76,0.072 0.807,0.057 0.844,0 l 2.856,-3.704 0.036,0 0,3.704 c 0,0.043 0.038,0.072 0.093,0.072 l 0.584,0 C 4.469,0.072 4.506,0.043 4.506,0 l 0,-4.793 c 0,-0.044 -0.037,-0.073 -0.093,-0.073 l -0.593,0 c -0.065,0 -0.12,0.014 -0.158,0.073 l -2.865,3.689 -0.028,0 0,-3.689 c 0,-0.044 -0.036,-0.073 -0.092,-0.073 l -0.584,0 C 0.037,-4.866 0,-4.837 0,-4.793"
         style="fill:#555759;fill-opacity:1;fill-rule:nonzero;stroke:none"
         id="path7133"
         inkscape:connector-curvature="0" />
    </g>
    <g
       id="g7135"
       transform="matrix(1.25,0,0,-1.25,398.99021,472.17274)">
      <path
         d="m 0,0 c 0,0.043 0.037,0.072 0.093,0.072 l 3.792,0 C 3.94,0.072 3.977,0.043 3.977,0 l 0,-0.458 C 3.977,-0.502 3.94,-0.53 3.885,-0.53 l -3.004,0 c -0.037,0 -0.056,-0.015 -0.056,-0.044 l 0,-1.452 c 0,-0.029 0.019,-0.044 0.056,-0.044 l 2.549,0 c 0.056,0 0.093,-0.029 0.093,-0.073 l 0,-0.457 c 0,-0.044 -0.037,-0.073 -0.093,-0.073 l -2.549,0 c -0.037,0 -0.056,-0.014 -0.056,-0.043 l 0,-1.504 c 0,-0.028 0.019,-0.043 0.056,-0.043 l 3.004,0 c 0.055,0 0.092,-0.029 0.092,-0.073 l 0,-0.457 c 0,-0.044 -0.037,-0.073 -0.092,-0.073 l -3.792,0 C 0.037,-4.866 0,-4.837 0,-4.793"
         style="fill:#555759;fill-opacity:1;fill-rule:nonzero;stroke:none"
         id="path7137"
         inkscape:connector-curvature="0" />
    </g>
    <g
       id="g7139"
       transform="matrix(1.25,0,0,-1.25,409.73771,478.25524)">
      <path
         d="m 0,0 c -0.065,0 -0.093,0.022 -0.121,0.072 l -1.261,2.019 -1.39,0 c -0.038,0 -0.056,-0.014 -0.056,-0.043 l 0,-1.976 C -2.828,0.029 -2.865,0 -2.921,0 L -3.56,0 c -0.056,0 -0.093,0.029 -0.093,0.072 l 0,4.794 c 0,0.043 0.037,0.072 0.093,0.072 l 2.28,0 c 1.178,0 1.975,-0.566 1.975,-1.423 0,-0.668 -0.482,-1.155 -1.242,-1.344 L 0.797,0.087 C 0.834,0.043 0.807,0 0.742,0 L 0,0 Z m -0.13,3.515 c 0,0.515 -0.436,0.821 -1.168,0.821 l -1.474,0 c -0.038,0 -0.056,-0.015 -0.056,-0.045 l 0,-1.554 c 0,-0.028 0.018,-0.043 0.056,-0.043 l 1.474,0 c 0.732,0 1.168,0.305 1.168,0.821"
         style="fill:#555759;fill-opacity:1;fill-rule:nonzero;stroke:none"
         id="path7141"
         inkscape:connector-curvature="0" />
    </g>
    <g
       id="g7143"
       transform="matrix(1.25,0,0,-1.25,411.67521,475.16899)">
      <path
         d="m 0,0 c 0,0.814 0.056,1.112 0.167,1.394 0.315,0.763 1.094,1.155 2.16,1.155 1.104,0 1.78,-0.436 2.096,-0.98 C 4.451,1.525 4.441,1.489 4.395,1.468 L 3.839,1.256 C 3.783,1.235 3.737,1.249 3.709,1.293 3.403,1.736 2.995,1.946 2.327,1.946 1.614,1.946 1.159,1.685 0.964,1.213 0.881,1.031 0.835,0.755 0.835,0 c 0,-0.755 0.046,-1.031 0.129,-1.212 0.195,-0.472 0.65,-0.734 1.363,-0.734 0.64,0 1.159,0.247 1.354,0.712 0.065,0.167 0.121,0.406 0.121,0.777 0,0.028 -0.019,0.043 -0.056,0.043 l -1.224,0 c -0.056,0 -0.093,0.03 -0.093,0.073 l 0,0.421 c 0,0.044 0.037,0.073 0.093,0.073 l 2.012,0 c 0.056,0 0.093,-0.029 0.093,-0.073 l 0,-0.37 c 0,-0.443 -0.065,-0.85 -0.158,-1.089 -0.306,-0.749 -1.094,-1.169 -2.142,-1.169 -1.066,0 -1.845,0.391 -2.16,1.154 C 0.056,-1.111 0,-0.813 0,0"
         style="fill:#555759;fill-opacity:1;fill-rule:nonzero;stroke:none"
         id="path7145"
         inkscape:connector-curvature="0" />
    </g>
    <g
       id="g7147"
       transform="matrix(1.25,0,0,-1.25,420.33646,478.25524)">
      <path
         d="m 0,0 c -0.056,0 -0.093,0.029 -0.093,0.072 l 0,1.947 -1.864,2.839 c -0.018,0.044 0.01,0.08 0.075,0.08 l 0.658,0 c 0.065,0 0.102,-0.022 0.139,-0.072 l 1.41,-2.114 0.018,0 1.4,2.114 c 0.028,0.05 0.065,0.072 0.13,0.072 l 0.64,0 c 0.074,0 0.093,-0.036 0.074,-0.08 l -1.864,-2.839 0,-1.947 C 0.723,0.029 0.686,0 0.631,0"
         style="fill:#555759;fill-opacity:1;fill-rule:nonzero;stroke:none"
         id="path7149"
         inkscape:connector-curvature="0" />
    </g>
    <g
       id="g7151"
       transform="matrix(1.25,0,0,-1.25,426.25021,477.58399)">
      <path
         d="m 0,0 c -0.037,0.029 -0.046,0.072 -0.009,0.109 l 0.408,0.378 c 0.037,0.036 0.083,0.036 0.13,0.007 0.407,-0.255 1.039,-0.508 1.761,-0.508 0.872,0 1.391,0.341 1.391,0.842 0,0.421 -0.306,0.704 -1.316,0.806 L 2.05,1.671 C 0.825,1.801 0.195,2.258 0.195,3.036 0.195,3.914 1.001,4.48 2.254,4.48 2.995,4.48 3.709,4.291 4.172,4.023 4.219,3.994 4.228,3.957 4.191,3.921 L 3.875,3.522 C 3.839,3.486 3.792,3.486 3.746,3.508 3.237,3.754 2.763,3.878 2.226,3.878 1.456,3.878 1.029,3.551 1.029,3.079 1.029,2.665 1.382,2.389 2.355,2.287 L 2.662,2.251 C 3.895,2.12 4.515,1.678 4.515,0.871 4.515,0.007 3.737,-0.617 2.216,-0.617 1.326,-0.617 0.464,-0.334 0,0"
         style="fill:#555759;fill-opacity:1;fill-rule:nonzero;stroke:none"
         id="path7153"
         inkscape:connector-curvature="0" />
    </g>
    <g
       id="g7155"
       transform="matrix(1.25,0,0,-1.25,433.13896,472.17274)">
      <path
         d="m 0,0 c 0,0.043 0.037,0.072 0.093,0.072 l 3.792,0 C 3.94,0.072 3.978,0.043 3.978,0 l 0,-0.458 C 3.978,-0.502 3.94,-0.53 3.885,-0.53 l -3.005,0 c -0.036,0 -0.055,-0.015 -0.055,-0.044 l 0,-1.452 c 0,-0.029 0.019,-0.044 0.055,-0.044 l 2.551,0 c 0.055,0 0.093,-0.029 0.093,-0.073 l 0,-0.457 c 0,-0.044 -0.038,-0.073 -0.093,-0.073 l -2.551,0 c -0.036,0 -0.055,-0.014 -0.055,-0.043 l 0,-1.504 c 0,-0.028 0.019,-0.043 0.055,-0.043 l 3.005,0 c 0.055,0 0.093,-0.029 0.093,-0.073 l 0,-0.457 c 0,-0.044 -0.038,-0.073 -0.093,-0.073 l -3.792,0 C 0.037,-4.866 0,-4.837 0,-4.793"
         style="fill:#555759;fill-opacity:1;fill-rule:nonzero;stroke:none"
         id="path7157"
         inkscape:connector-curvature="0" />
    </g>
    <g
       id="g7159"
       transform="matrix(1.25,0,0,-1.25,443.88521,478.25524)">
      <path
         d="m 0,0 c -0.065,0 -0.093,0.022 -0.121,0.072 l -1.261,2.019 -1.391,0 c -0.037,0 -0.055,-0.014 -0.055,-0.043 l 0,-1.976 C -2.828,0.029 -2.866,0 -2.921,0 L -3.56,0 c -0.056,0 -0.093,0.029 -0.093,0.072 l 0,4.794 c 0,0.043 0.037,0.072 0.093,0.072 l 2.28,0 c 1.178,0 1.975,-0.566 1.975,-1.423 0,-0.668 -0.482,-1.155 -1.242,-1.344 L 0.797,0.087 C 0.834,0.043 0.806,0 0.741,0 L 0,0 Z m -0.13,3.515 c 0,0.515 -0.435,0.821 -1.168,0.821 l -1.475,0 c -0.037,0 -0.055,-0.015 -0.055,-0.045 l 0,-1.554 c 0,-0.028 0.018,-0.043 0.055,-0.043 l 1.475,0 c 0.733,0 1.168,0.305 1.168,0.821"
         style="fill:#555759;fill-opacity:1;fill-rule:nonzero;stroke:none"
         id="path7161"
         inkscape:connector-curvature="0" />
    </g>
    <g
       id="g7163"
       transform="matrix(1.25,0,0,-1.25,447.94396,478.25524)">
      <path
         d="m 0,0 c -0.056,0 -0.093,0.029 -0.111,0.072 l -2.04,4.779 c -0.028,0.058 0.008,0.087 0.064,0.087 l 0.631,0 c 0.074,0 0.112,-0.022 0.13,-0.072 l 1.613,-3.813 0.018,0 1.558,3.813 c 0.019,0.05 0.056,0.072 0.121,0.072 l 0.64,0 c 0.055,0 0.093,-0.029 0.065,-0.087 L 0.658,0.072 C 0.64,0.029 0.602,0 0.547,0"
         style="fill:#555759;fill-opacity:1;fill-rule:nonzero;stroke:none"
         id="path7165"
         inkscape:connector-curvature="0" />
    </g>
    <g
       id="g7167"
       transform="matrix(1.25,0,0,-1.25,452.16646,472.17274)">
      <path
         d="m 0,0 c 0,0.043 0.037,0.072 0.093,0.072 l 0.64,0 C 0.788,0.072 0.825,0.043 0.825,0 l 0,-4.793 c 0,-0.044 -0.037,-0.073 -0.092,-0.073 l -0.64,0 C 0.037,-4.866 0,-4.837 0,-4.793"
         style="fill:#555759;fill-opacity:1;fill-rule:nonzero;stroke:none"
         id="path7169"
         inkscape:connector-curvature="0" />
    </g>
    <g
       id="g7171"
       transform="matrix(1.25,0,0,-1.25,454.52021,475.16899)">
      <path
         d="m 0,0 c 0,0.821 0.046,1.104 0.166,1.387 0.315,0.778 1.067,1.162 2.096,1.162 0.936,0 1.66,-0.363 2.021,-0.995 C 4.302,1.518 4.293,1.482 4.247,1.46 L 3.69,1.249 C 3.634,1.227 3.579,1.249 3.56,1.286 3.31,1.671 2.921,1.946 2.262,1.946 1.576,1.946 1.159,1.685 0.955,1.22 0.871,1.017 0.834,0.778 0.834,0 c 0,-0.777 0.037,-1.016 0.121,-1.219 0.204,-0.465 0.621,-0.727 1.307,-0.727 0.659,0 1.048,0.276 1.298,0.661 0.019,0.037 0.074,0.058 0.13,0.037 L 4.247,-1.46 C 4.293,-1.481 4.302,-1.517 4.283,-1.553 3.922,-2.185 3.198,-2.548 2.262,-2.548 1.233,-2.548 0.481,-2.164 0.166,-1.386 0.046,-1.104 0,-0.82 0,0"
         style="fill:#555759;fill-opacity:1;fill-rule:nonzero;stroke:none"
         id="path7173"
         inkscape:connector-curvature="0" />
    </g>
    <g
       id="g7175"
       transform="matrix(1.25,0,0,-1.25,461.01396,472.17274)">
      <path
         d="m 0,0 c 0,0.043 0.037,0.072 0.093,0.072 l 3.792,0 C 3.94,0.072 3.978,0.043 3.978,0 l 0,-0.458 C 3.978,-0.502 3.94,-0.53 3.885,-0.53 l -3.005,0 c -0.036,0 -0.055,-0.015 -0.055,-0.044 l 0,-1.452 c 0,-0.029 0.019,-0.044 0.055,-0.044 l 2.551,0 c 0.055,0 0.092,-0.029 0.092,-0.073 l 0,-0.457 c 0,-0.044 -0.037,-0.073 -0.092,-0.073 l -2.551,0 c -0.036,0 -0.055,-0.014 -0.055,-0.043 l 0,-1.504 c 0,-0.028 0.019,-0.043 0.055,-0.043 l 3.005,0 c 0.055,0 0.093,-0.029 0.093,-0.073 l 0,-0.457 c 0,-0.044 -0.038,-0.073 -0.093,-0.073 l -3.792,0 C 0.037,-4.866 0,-4.837 0,-4.793"
         style="fill:#555759;fill-opacity:1;fill-rule:nonzero;stroke:none"
         id="path7177"
         inkscape:connector-curvature="0" />
    </g>
    <g
       id="g7179"
       transform="matrix(1.25,0,0,-1.25,466.81146,477.58399)">
      <path
         d="m 0,0 c -0.037,0.029 -0.046,0.072 -0.009,0.109 l 0.408,0.378 c 0.037,0.036 0.083,0.036 0.13,0.007 0.408,-0.255 1.039,-0.508 1.761,-0.508 0.872,0 1.391,0.341 1.391,0.842 0,0.421 -0.306,0.704 -1.316,0.806 L 2.05,1.671 C 0.825,1.801 0.195,2.258 0.195,3.036 0.195,3.914 1.001,4.48 2.254,4.48 2.995,4.48 3.709,4.291 4.172,4.023 4.219,3.994 4.228,3.957 4.191,3.921 L 3.876,3.522 C 3.839,3.486 3.792,3.486 3.746,3.508 3.237,3.754 2.763,3.878 2.226,3.878 1.456,3.878 1.029,3.551 1.029,3.079 1.029,2.665 1.382,2.389 2.355,2.287 L 2.662,2.251 C 3.895,2.12 4.515,1.678 4.515,0.871 4.515,0.007 3.737,-0.617 2.216,-0.617 1.326,-0.617 0.464,-0.334 0,0"
         style="fill:#555759;fill-opacity:1;fill-rule:nonzero;stroke:none"
         id="path7181"
         inkscape:connector-curvature="0" />
    </g>
  </g>
</svg>
