<?xml version="1.0" standalone="no"?>
<!DOCTYPE svg PUBLIC "-//W3C//DTD SVG 20010904//EN"
 "http://www.w3.org/TR/2001/REC-SVG-20010904/DTD/svg10.dtd">
<svg version="1.0" xmlns="http://www.w3.org/2000/svg"
 width="536.000000pt" height="232.000000pt" viewBox="0 0 536.000000 232.000000"
 preserveAspectRatio="xMidYMid meet">

<g transform="translate(0.000000,232.000000) scale(0.100000,-0.100000)"
fill="#000000" stroke="none">
<path d="M2220 2110 c-30 -5 -176 -22 -323 -39 -182 -22 -286 -38 -323 -52
-31 -12 -54 -22 -52 -24 2 -1 48 6 103 16 166 30 338 51 373 44 33 -6 33 -7
16 -26 -10 -11 -30 -19 -48 -19 -26 0 -117 -15 -288 -47 -16 -3 -28 -12 -28
-19 0 -8 -10 -14 -25 -14 -14 0 -25 -4 -25 -9 0 -5 -47 -44 -105 -86 -58 -43
-105 -82 -105 -87 0 -6 -7 -7 -16 -4 -8 3 -12 2 -9 -4 3 -6 -1 -10 -9 -10 -9
0 -16 -4 -16 -10 0 -5 -10 -10 -22 -10 -12 0 -19 -2 -16 -6 6 -6 116 13 293
50 157 34 205 40 205 27 0 -12 -10 -15 -140 -41 -662 -133 -1040 -344 -1040
-581 0 -27 9 -72 20 -101 11 -28 18 -54 15 -56 -7 -8 -54 75 -65 117 -6 25
-17 41 -26 41 -8 0 -19 10 -24 23 -8 20 -9 20 -9 -9 -1 -31 -34 -84 -52 -84
-5 0 -1 10 11 22 27 29 25 64 -5 93 -27 28 -45 31 -78 14 -28 -15 -36 -28 -38
-59 -1 -19 -3 -17 -8 10 -10 49 -6 56 45 75 25 9 44 19 42 21 -9 8 -81 -16
-94 -33 -20 -24 -13 -107 11 -133 10 -11 15 -20 12 -20 -3 0 1 -16 9 -35 16
-39 18 -57 4 -35 -8 13 -11 12 -16 -7 -3 -11 -15 -23 -26 -26 -39 -11 -85 112
-75 200 5 50 37 88 65 79 13 -5 13 -3 -2 9 -19 15 -19 15 2 15 13 0 25 7 28
15 4 8 10 15 14 15 14 0 90 53 90 62 0 5 4 7 9 3 6 -3 13 1 18 8 4 7 24 23 45
35 20 12 39 29 42 38 3 8 10 12 16 9 5 -3 10 -1 10 5 0 6 30 30 67 54 38 24
97 67 132 95 35 28 67 51 72 51 5 0 9 7 9 15 0 8 8 15 18 15 10 0 35 16 56 35
21 19 42 32 47 29 5 -3 18 1 30 9 15 11 17 16 7 20 -7 3 -1 6 15 6 15 1 27 6
27 11 0 13 4 13 -71 -11 -175 -57 -364 -148 -484 -234 -83 -59 -187 -170 -219
-232 -14 -29 -29 -53 -32 -53 -3 0 -4 6 -1 14 3 8 0 17 -8 20 -9 3 -12 0 -8
-9 3 -8 -2 -18 -11 -21 -9 -3 -16 -14 -17 -23 0 -9 -3 -11 -5 -4 -3 7 9 43 27
80 25 53 54 90 131 166 98 97 98 97 31 46 -84 -63 -106 -90 -171 -204 -66
-116 -76 -187 -42 -292 13 -37 28 -75 35 -83 7 -8 20 -31 28 -50 14 -34 106
-128 197 -201 48 -38 177 -129 184 -129 2 0 47 -20 100 -45 53 -25 101 -45
107 -45 6 0 42 -14 82 -31 116 -50 311 -108 467 -139 80 -16 163 -35 186 -43
23 -8 72 -18 110 -22 217 -21 434 -46 469 -55 92 -22 231 -31 473 -30 243 0
564 14 581 24 4 3 54 10 112 16 323 33 434 49 503 74 22 8 73 20 111 25 39 6
102 20 140 32 39 12 115 34 170 49 162 45 517 216 593 284 177 160 231 220
272 301 40 81 41 85 38 167 -4 80 -11 108 -48 193 -22 50 -192 231 -250 265
-23 14 -67 43 -98 66 -62 45 -248 139 -297 150 -16 3 -46 17 -65 30 -20 12
-73 30 -120 40 -47 9 -112 27 -145 40 -34 12 -103 30 -155 40 -52 9 -122 27
-155 39 -61 23 -143 35 -385 55 -74 7 -171 19 -215 27 -64 13 -168 17 -520 19
-242 1 -465 -2 -495 -6z m845 -20 c172 -10 472 -43 555 -60 25 -5 70 -12 100
-16 45 -6 51 -9 30 -15 -21 -6 -22 -7 -5 -9 l20 -1 -20 -9 c-19 -8 -19 -9 3
-9 12 -1 22 -5 22 -9 0 -5 -28 -3 -62 4 -35 7 -142 22 -239 33 -193 23 -294
27 -269 11 13 -8 13 -10 -1 -10 -9 0 -45 -22 -81 -49 -36 -28 -68 -47 -72 -44
-3 4 -6 -3 -6 -15 0 -16 -7 -21 -32 -24 -33 -4 -13 -9 117 -35 l30 -6 -24 -9
c-14 -5 -31 -6 -39 -3 -18 7 -619 7 -807 1 -94 -4 -130 -2 -110 4 39 12 -178
3 -265 -11 -43 -7 -66 -7 -73 0 -8 8 -1 14 21 22 18 6 32 15 32 19 0 4 16 15
35 24 19 9 35 21 35 26 0 5 27 25 60 45 33 20 60 41 60 46 0 5 8 9 18 10 14 0
14 2 -3 8 -15 6 -9 10 30 15 93 12 329 26 449 26 120 0 120 0 99 20 -18 16
-39 20 -130 23 -59 1 -4 4 122 5 127 1 307 -3 400 -8z m-1032 -27 c-7 -2 -19
-2 -25 0 -7 3 -2 5 12 5 14 0 19 -2 13 -5z m1987 -163 c167 -36 221 -43 151
-19 -24 9 -29 14 -19 20 9 6 6 9 -12 10 -14 0 -19 3 -12 6 28 11 374 -116 527
-195 210 -107 381 -256 445 -387 33 -66 35 -75 35 -175 0 -100 -2 -109 -35
-175 -36 -74 -181 -235 -210 -235 -10 1 -6 9 12 24 21 19 24 26 13 30 -8 3
-15 1 -15 -4 0 -6 -4 -10 -9 -10 -12 0 -235 -150 -239 -161 -5 -12 15 -11 40
2 11 6 22 9 24 6 15 -15 -265 -137 -463 -201 -161 -52 -459 -123 -471 -112 -2
3 12 8 32 11 20 4 33 11 30 16 -8 14 -71 11 -216 -10 -73 -11 -194 -27 -268
-36 -130 -16 -196 -33 -140 -36 l25 -1 -25 -8 c-25 -8 -25 -8 5 -11 75 -6
-127 -18 -410 -25 -638 -14 -1185 52 -1675 203 -202 62 -431 159 -465 196 -5
6 2 3 17 -6 15 -9 33 -17 39 -17 22 0 -14 31 -110 95 -53 35 -109 76 -125 91
-28 26 -28 29 -10 34 39 11 74 34 74 47 0 7 5 13 10 13 6 0 29 13 52 30 22 16
45 30 51 30 5 0 29 -13 54 -30 47 -32 58 -37 47 -18 -8 13 11 3 37 -18 49 -42
350 -172 497 -215 41 -12 57 -29 27 -29 -8 0 -15 -4 -15 -10 0 -5 -7 -10 -15
-10 -9 0 -30 -16 -49 -35 -18 -19 -35 -32 -37 -30 -2 2 -20 -9 -39 -25 -23
-19 -32 -32 -25 -39 24 -24 376 -109 463 -112 41 -2 58 3 86 24 19 15 38 27
42 27 4 0 22 15 40 34 18 19 35 32 38 29 2 -2 15 1 27 8 22 12 22 12 -14 31
-20 10 -37 20 -37 22 0 5 100 -2 285 -20 638 -61 1368 -15 1914 121 57 14 106
23 109 20 3 -3 -3 -5 -13 -5 -10 0 -16 -3 -12 -6 11 -12 230 69 341 125 173
88 262 163 315 268 21 43 30 82 11 53 -7 -11 -10 4 -10 50 -1 109 -56 193
-185 285 -171 122 -400 205 -813 296 -56 12 -100 25 -97 27 3 3 -6 13 -20 22
l-25 17 52 33 c29 18 68 48 87 67 19 18 40 33 48 33 7 0 13 5 13 10 0 6 10 8
23 5 12 -3 101 -23 197 -45z m-1730 -700 c0 -201 -5 -230 -47 -249 -34 -16
-566 -15 -596 1 -37 19 -46 41 -47 106 l0 62 90 0 90 0 0 -45 0 -45 165 0 165
0 0 180 0 180 90 0 90 0 0 -190z m750 145 l0 -45 -242 -2 -243 -3 -3 -132 -3
-133 156 0 155 0 0 45 0 45 -85 0 -85 0 0 45 0 45 175 0 175 0 0 -104 c0 -57
-3 -112 -6 -121 -16 -40 -51 -45 -339 -45 l-276 0 -24 25 c-25 24 -25 27 -25
190 0 100 4 174 11 186 23 44 57 48 367 49 l292 0 0 -45z m728 -2 l3 -42 -118
-3 -118 -3 -3 -27 -3 -28 -89 0 -89 0 -3 28 -3 27 -112 3 -113 3 0 44 0 45
323 -2 322 -3 3 -42z m-3541 -135 c-3 -8 -6 -5 -6 6 -1 11 2 17 5 13 3 -3 4
-12 1 -19z m4120 0 c-3 -8 -6 -5 -6 6 -1 11 2 17 5 13 3 -3 4 -12 1 -19z
m-3897 -8 c0 -5 6 -10 14 -10 22 0 27 -29 10 -56 -19 -28 -46 -31 -68 -8 -21
21 -20 40 4 64 22 22 40 26 40 10z m3080 -125 l0 -135 -90 0 -90 0 0 135 0
135 90 0 90 0 0 -135z m-3303 23 c-3 -8 -6 -5 -6 6 -1 11 2 17 5 13 3 -3 4
-12 1 -19z m226 -15 c-7 -2 -19 -2 -25 0 -7 3 -2 5 12 5 14 0 19 -2 13 -5z
m3194 -789 c-3 -3 -12 -4 -19 -1 -8 3 -5 6 6 6 11 1 17 -2 13 -5z"/>
<path d="M4877 1212 c-10 -10 -17 -25 -18 -33 0 -8 -4 -6 -9 6 -8 19 -9 19 -9
-2 -1 -12 -5 -23 -11 -25 -11 -4 -2 -48 10 -48 5 0 11 8 13 18 4 16 5 16 6 -1
0 -10 -6 -20 -14 -23 -8 -4 -13 -10 -10 -15 3 -4 12 -6 19 -3 8 3 17 1 21 -5
3 -6 21 -11 40 -11 65 0 102 99 53 141 -29 24 -70 24 -91 1z m71 -22 c27 -25
28 -42 3 -64 -24 -22 -54 -14 -69 18 -8 19 -7 27 11 45 26 26 28 26 55 1z
m-10 -96 c20 5 23 4 12 -4 -21 -14 -43 -12 -66 6 -18 14 -18 15 4 4 13 -7 36
-9 50 -6z"/>
<path d="M4048 643 c7 -3 16 -2 19 1 4 3 -2 6 -13 5 -11 0 -14 -3 -6 -6z"/>
<path d="M1468 1983 c7 -3 16 -2 19 1 4 3 -2 6 -13 5 -11 0 -14 -3 -6 -6z"/>
<path d="M1418 1973 c7 -3 16 -2 19 1 4 3 -2 6 -13 5 -11 0 -14 -3 -6 -6z"/>
<path d="M1325 1965 c-5 -2 -50 -15 -100 -30 -49 -15 -106 -33 -126 -40 -20
-8 -39 -12 -41 -9 -7 7 -76 -24 -84 -38 -5 -7 -2 -10 7 -6 64 24 224 73 314
97 72 19 98 29 75 29 -19 0 -39 -1 -45 -3z"/>
<path d="M559 1650 l-24 -21 33 16 c31 15 41 25 23 25 -5 0 -19 -9 -32 -20z"/>
</g>
</svg>
